<svg 
width="129" 
height="58" 
viewBox="0 0 129 58" 
fill="none" 
xmlns="http://www.w3.org/2000/svg">
<path d="M2.18243 1.5C1.63015 1.5 1.18243 1.94772 1.18243 2.5L1.18243 55C1.18243 55.5523 1.63015 56 2.18243 56H9.38244C9.93472 56 10.3824 55.5523 10.3824 55L10.3824 27.5813L14.5436 55.1493C14.6175 55.6384 15.0378 56 15.5324 56H22.4324C22.9271 56 23.3474 55.6384 23.4212 55.1493L27.5824 27.5813L27.5824 55C27.5824 55.5523 28.0302 56 28.5824 56H36.3824C36.9347 56 37.3824 55.5523 37.3824 55L37.3824 2.5C37.3824 1.94772 36.9347 1.5 36.3824 1.5L24.6074 1.5C24.1086 1.5 23.6861 1.8676 23.6171 2.36162L19.2824 33.3851L14.9478 2.36162C14.8788 1.8676 14.4563 1.5 13.9574 1.5L2.18243 1.5ZM42.5389 1.5C41.9866 1.5 41.5389 1.94772 41.5389 2.5L41.5389 55C41.5389 55.5523 41.9866 56 42.5389 56H65.0389C65.5912 56 66.0389 55.5523 66.0389 55V47.5C66.0389 46.9477 65.5912 46.5 65.0389 46.5H51.7889L51.7889 32.375L62.1139 32.375C62.6662 32.375 63.1139 31.9273 63.1139 31.375V23.875C63.1139 23.3227 62.6662 22.875 62.1139 22.875L51.7889 22.875L51.7889 11L65.0389 11C65.5912 11 66.0389 10.5523 66.0389 10V2.5C66.0389 1.94772 65.5912 1.5 65.0389 1.5L42.5389 1.5ZM69.785 1.5C69.2327 1.5 68.785 1.94772 68.785 2.5L68.785 55C68.785 55.5523 69.2327 56 69.785 56H77.135C77.6873 56 78.135 55.5523 78.135 55L78.135 23.9638L86.2168 55.2501C86.3308 55.6916 86.729 56 87.185 56H95.66C96.2123 56 96.66 55.5523 96.66 55L96.66 2.5C96.66 1.94772 96.2123 1.5 95.66 1.5L88.31 1.5C87.7577 1.5 87.31 1.94772 87.31 2.5V26.5549L81.1039 2.25257C80.9908 1.80979 80.592 1.5 80.135 1.5L69.785 1.5ZM103.903 53.0493L103.911 53.0573C106.252 55.5661 109.602 56.75 113.792 56.75C117.981 56.75 121.331 55.5661 123.673 53.0573L123.673 53.0574L123.68 53.0493C126.002 50.5068 127.092 46.9576 127.092 42.55L127.092 2.5C127.092 1.94772 126.644 1.5 126.092 1.5L118.142 1.5C117.59 1.5 117.142 1.94772 117.142 2.5L117.142 43.15C117.142 44.8496 116.781 45.8393 116.287 46.3661C116.282 46.372 116.276 46.378 116.271 46.3841C116.269 46.3865 116.266 46.389 116.264 46.3915C115.803 46.9186 115.087 47.25 113.942 47.25C112.809 47.25 112.052 46.9245 111.533 46.3789C111.077 45.8479 110.742 44.849 110.742 43.15L110.742 2.5C110.742 1.94772 110.294 1.5 109.742 1.5L101.492 1.5C100.94 1.5 100.492 1.94772 100.492 2.5L100.492 42.55C100.492 46.9576 101.582 50.5068 103.903 53.0493L103.903 53.0493Z" 
stroke="#E0E6E9" 
stroke-width="2" 
stroke-linejoin="round"/>
</svg>
