<svg xmlns="http://www.w3.org/2000/svg" viewBox="0 0 392.26 392.26"><defs><style>.cls-1{isolation:isolate;}.cls-2{fill:#f4f4f4;}.cls-3{fill:#006ec3;}.cls-4{fill:#dadada;}.cls-10,.cls-13,.cls-14,.cls-5,.cls-8{mix-blend-mode:multiply;}.cls-6{fill:#ebeaea;}.cls-7,.cls-8{fill:#58991f;}.cls-10,.cls-8{opacity:0.5;}.cls-10,.cls-14,.cls-9{fill:#97c740;}.cls-11,.cls-13,.cls-16{fill:#68b42e;}.cls-12{fill:#3e9f32;}.cls-15{fill:#e1ccbb;}.cls-16,.cls-17{mix-blend-mode:screen;}.cls-18{fill:#ef7e8a;}.cls-19{fill:#f5aca2;}.cls-20{fill:#f39b99;}.cls-21{fill:#e83426;}.cls-22{fill:#ee523b;}.cls-23{fill:#ca2c21;}.cls-24{fill:#ffbe60;}.cls-25{fill:#fff;}.cls-26{fill:#f2d038;}.cls-27{fill:#e39042;}.cls-28{fill:#6c8424;}.cls-29{fill:#fffbdc;}</style></defs><g class="cls-1"><g id="Layer_2" data-name="Layer 2"><g id="Layer_1-2" data-name="Layer 1"><circle class="cls-2" cx="196.13" cy="196.13" r="196.13" transform="translate(-81.24 196.13) rotate(-45)"/><path class="cls-3" d="M196.13,13.34a182.84,182.84,0,0,1,71.15,351.22A182.84,182.84,0,0,1,125,27.7a181.64,181.64,0,0,1,71.15-14.36Zm0-4.55C92.66,8.79,8.79,92.66,8.79,196.13S92.66,383.47,196.13,383.47s187.34-83.88,187.34-187.34S299.59,8.79,196.13,8.79Z"/><path class="cls-3" d="M196.13,19.7a176.47,176.47,0,0,1,68.67,339A176.47,176.47,0,0,1,127.46,33.57,175.08,175.08,0,0,1,196.13,19.7Zm0-1.82A178.25,178.25,0,1,0,374.37,196.13,178.26,178.26,0,0,0,196.13,17.88Z"/><path class="cls-4" d="M330.86,196.13A134.73,134.73,0,1,1,196.13,61.4,134.73,134.73,0,0,1,330.86,196.13Z"/><path class="cls-2" d="M328.63,196.82A131.87,131.87,0,1,1,196.77,65,131.86,131.86,0,0,1,328.63,196.82Z"/><g class="cls-5"><path class="cls-6" d="M318.47,182.1c2,1.56,2.35,4.06,7.82,1.72s5.63-7.19,4.06-11.57-4.06-4.22-1.4-8.13,2.81-5.32-1.72-8a5.12,5.12,0,0,0,.15-.56.5.5,0,0,0,0-.12,3.31,3.31,0,0,0,.05-.55,1.21,1.21,0,0,0,0-.19,3.22,3.22,0,0,0,0-.43l-.06-.37-.06-.27a4.87,4.87,0,0,0-.23-.74h0c-1-2.68-3.68-5.34-5.77-5.67-3-.47-5-2.81-4.38-4.84s1.25-6.1-8-5.32c-5.49.46-8.71,2-11.51,5a15.45,15.45,0,0,0-1.34-1.79c-2.54-2.9-2.9-5.07,1.81-7.07s6.34-3.44,6.34-8.5-1.09-8.34-6.34-10.87-4.35-6.34-4.35-9.42.19-3.44-4.34-6.7c-.25-.18-.51-.34-.75-.49l-.21-.13c-.2-.12-.4-.22-.6-.32l-.16-.08a7.17,7.17,0,0,0-.71-.3l-.2-.07-.52-.16-.24-.06a4.67,4.67,0,0,0-.65-.13L285,96l-.46,0h-.29c-.13,0-.25,0-.38,0l-.46,0L283,96l-.37.06-.23,0a8.53,8.53,0,0,0-1.31.38l-.1,0c-.15.05-.3.12-.44.18h0a14.28,14.28,0,0,0-2.93,1.77c-3.08,2.36-5.07-1.44-9.42-4.16s-6.88-2-10.14,6.52a66.31,66.31,0,0,0-.66,23.29c-.21-1.3-.37-2.59-.51-3.79-.48-4.13-.79-5.72-3-7.78s-.32-3.49-.32-6.34-3.33-6.35-8.89-6.66-4.59-4-2.85-6.51a5.35,5.35,0,0,0,.29-.47l.09-.19.16-.33.1-.25a2.83,2.83,0,0,0,.11-.31c0-.1.07-.2.1-.3l.06-.27c0-.12.07-.25.09-.37a.77.77,0,0,1,0-.15,5.45,5.45,0,0,0-2.82-6h0a9,9,0,0,0-2.64-.92c-6.66-1.26-12.85,14.6-12.85,14.6s-1.75-2.86-6.5-4c-3.5-.82-5.71.76-7.45,3,.19-2.94-1.71-4.51-3.86-6.39-3.16-2.76-7.57-3.06-11.55-1l-.59.3-.25.12-.36.17-.25.13-.47.21-.28.11-.22.09-.3.1-.14,0a3.82,3.82,0,0,1-.56.14l-.13,0-.31,0h-.11a3.33,3.33,0,0,1-.63,0h0l-.32-.08-.1,0a4.3,4.3,0,0,1-1-.47l-.1-.07a3.64,3.64,0,0,1-.35-.24,18.17,18.17,0,0,1-3.24-3.47c-2.74-3.58-8.07-2.55-11.68,1.91s-6.37,5.09-10.62,4.88A7.38,7.38,0,0,0,158,96a4.53,4.53,0,0,0-3.64-1.45c-3.75.2-2.57-2.17-1-5.52a2.76,2.76,0,0,0,.15-.43.44.44,0,0,0,0-.1,2,2,0,0,0,.05-.41s0,0,0-.06a1.34,1.34,0,0,0,0-.35s0,0,0-.07a2.28,2.28,0,0,0-.15-.36l0-.07a2.37,2.37,0,0,0-.22-.33h0a1.94,1.94,0,0,0-.32-.32l-.05,0c-.12-.09-.25-.19-.39-.28h0a3.21,3.21,0,0,0-.45-.24l0,0-.51-.2h0a6.27,6.27,0,0,0-1.19-.25h0a6.74,6.74,0,0,0-3.33.48h0a6,6,0,0,0-2.47,1.9c-3.36,4.34-.79,5.33-5.13,6.31s-14.4,1-11,15.58c.15.68.29,1.32.42,1.94-3.53-3.38-9.41-3.66-11.39-2.38s-2.6-.4-6.91-2.8a3.71,3.71,0,0,0-.45-.22l-.14-.06-.31-.11-.15,0-.29-.07-.14,0-.36,0h-.46l-.11,0-.29,0-.13,0-.27.07-.12,0-.31.12-.06,0-.37.19,0,0-.31.19-.1.07-.26.19-.09.07-.3.25s0,0,0,0c-.23.2-.46.43-.68.66l0,0-.3.33,0,0c-1.22,1.4-2.31,3.11-3.36,4.32-2.5,2.91-7.51.2-12.12,4.32s-2.31,8.31-2.31,8.31c-17.38,3.51-14.7,17.92-10.49,19.76s4.34.53,6,5.13,9.33-.13,9.33,4.08c0,0,0,.08,0,.13a33.16,33.16,0,0,0-6.76-.21c-8.19.58-8.19,3.71-7.21,9.36q0,.31.06.6a1,1,0,0,1,0,.17c0,.14,0,.27,0,.39s0,.12,0,.17a2.57,2.57,0,0,1-.07.4.29.29,0,0,1,0,.09,2.84,2.84,0,0,1-.15.44.37.37,0,0,1,0,.11,2.11,2.11,0,0,1-.16.3.83.83,0,0,1-.08.12,2.48,2.48,0,0,1-.19.26.86.86,0,0,1-.07.1l-.31.31-.06,0-.29.23-.12.08a2.61,2.61,0,0,1-.28.17l-.11.07a5.93,5.93,0,0,1-.85.38l-.1,0-.36.11-.1,0-.43.11h0l-.49.1h0l-.44.08h0l-.45.06h0a14.07,14.07,0,0,1-2.38.07c-2.34,0-4.1,1.18-4.88,5.08s1.37,6.43,5.46,5.65,4.1-.58,3.32,4.68c-.5,4.2.27,7.31,2.78,8.57h0l.35.15.62.22.37.08c.13,0,.27.06.41.09l.17,0c-1.42,3.76-3,7.52-4.79,7.86-2.24.44-4.66-.21-8.6,7.29s3.16,11.83,2.37,19.12C66.56,234,64.58,238.94,78,251c2.87,3,5.46,5.51,7.78,7.56-.12.13-.23.26-.36.39h0c-2.61,2.86-6.23,7.63-6.23,12.17,0,7.1,7.1.59,6.7,4.73a14.07,14.07,0,0,0,1.67,8.26l.06.09.18.25a.64.64,0,0,0,.1.13,1.84,1.84,0,0,0,.17.22l.12.15.19.19a1.85,1.85,0,0,0,.14.14,1.54,1.54,0,0,0,.19.17l.16.14.19.15.18.12.2.13.2.12.21.11.22.1.22.08.24.08.23.07a2.27,2.27,0,0,0,.25.06l.24.05.28,0,.24,0h.56l.33,0,.25,0a2.91,2.91,0,0,0,.4-.05l.22,0c.21,0,.42-.08.65-.13,7.29-1.77,5.52.79,7.88,4.74s6.46,8.89,13.61,7.09c3.16-.79,5.18-7.1,3.5-9.21s-2.19-2.86-.93-3.79a4.83,4.83,0,0,0,1.21-3c7.19,10.41,19.75,15.4,30,11.28h.05c-2.87,6.62,1.45,10.85,5.78,9.08,5.33-2.17,5.72-1.18,6.71,3.55.86,4.17,3.88,7.42,8.23,7.59a1.08,1.08,0,0,0,.18,0c.23,0,.46,0,.71,0s.61,0,.93-.09c5.33-.79,1.38-7.7,5.92-8.09s5.13,4.93,8.48,3.75,5.52-2.76,8.28-1c1.9,1.22,3.93-.66,5.37-2.78.89,3.48,2.53,6.08,7.78,6.27,7.36.26,5.79-8.94,11.05-4.74a13.14,13.14,0,0,0,1.3.92h0c2.25,1.38,4.1,1.43,5.45.83h0a3.48,3.48,0,0,0,.43-.22l.08-.05.34-.24.11-.1A2.18,2.18,0,0,0,227,308a1.59,1.59,0,0,1,.13-.13l.21-.26a1.18,1.18,0,0,0,.13-.18l.17-.24.12-.23.12-.22c0-.09.08-.19.11-.28l.07-.18a4.77,4.77,0,0,0,.13-.47c.49-2.45.07-4.89,4.23-4.8.13.35.27.7.44,1.05,3.55,7.69,11.24,3.94,14,3.75s6.31,2.37,10.06,4.34a6.81,6.81,0,0,0,2.49.74h0a8.05,8.05,0,0,0,2.3-.12h.05l.53-.13h.05a9.32,9.32,0,0,0,1.47-.57l.17-.08.34-.19.24-.15a2.9,2.9,0,0,0,.29-.19l.3-.21.22-.17a5.72,5.72,0,0,0,.46-.4l.16-.16.3-.31.15-.17.27-.34.12-.16a5.84,5.84,0,0,0,.33-.53c1.78-3.16,5.32-2.76,9.86-2.76s9.47-.4,13.61-5.72,4.14-6.7,3.35-11,1-3.95,5.52-8.88c3.36-3.65,2.93-9-.16-12.77,3.4-2.16,4.13-4.82,3.72-6.61s1.93-1.63,3-5.78a14.63,14.63,0,0,0,.34-4.81,20.87,20.87,0,0,0,4.49-1.32c7.49-2.91,5.41-5.2,5.83-11s3.12-7.28,7.48-9.57c.27-.14.52-.28.75-.43l.33-.24.3-.21.36-.34a1.07,1.07,0,0,0,.16-.14c.13-.14.24-.27.35-.41l.07-.09c.11-.16.21-.31.3-.47l0-.06a3.14,3.14,0,0,0,.23-.53s0,0,0,0a3.83,3.83,0,0,0,.16-.58h0c.39-1.89-.39-4.21-1.59-7.09-2.08-5-7.07-3.33-5.61-8.73,2.08-6.66-2.71-7.91-10.62-7.91a11.39,11.39,0,0,1-3.51-.41,22.51,22.51,0,0,1,4.55-11.84l-.77-.89a13.61,13.61,0,0,0,2.9-2C314.25,182.57,316.44,180.54,318.47,182.1Z"/><path class="cls-6" d="M315.84,192.91c.55,0,1.11-1.36.52-1.36S315.25,192.91,315.84,192.91Z"/><path class="cls-6" d="M307.67,196.79c.14.51.73,0,.89-.38.07-.18.14-.53-.07-.65s-.54.2-.67.37h0C307.65,196.34,307.5,196.66,307.67,196.79Z"/></g><path class="cls-7" d="M161.13,259.54s-47.72-7.5-58.77-37.87,4.74-74.15,12.23-84.4,21.7-13.81,42.6-18.93,45-9.47,66.66-3.16,50.09,15.38,58.37,34.31,11.83,69.82,17.36,80.86,6.18,16.44,5.14,20.59-3.41,3.85-3,5.78-.44,4.9-4.59,7.12-63.45,11.47-87.51,7.53S161.13,259.54,161.13,259.54Z"/><path class="cls-8" d="M299.58,230.35c-5.53-11-9.08-61.93-17.36-80.86s-36.68-28-58.37-34.31-45.76-2-66.66,3.16-35.11,8.67-42.6,18.93-23.27,54-12.23,84.4,58.77,37.87,58.77,37.87,24.46,7.89,48.52,11.83,83.35-5.3,87.51-7.53,5-5.19,4.59-7.12,1.93-1.63,3-5.78S305.1,241.39,299.58,230.35ZM123.86,205.93a39.1,39.1,0,0,0-2.3,6.11,11.7,11.7,0,0,1-2.07,5c-.6.72-2.33,1.88-3.23,1.07-.67-.59-.09-2.19.13-2.85.54-1.65,1.29-3.19,1.92-4.81a6,6,0,0,0-.28-4.29c-.48-1.25-1.8-2.42-1.74-3.83.82,0,1.66.47,2.49.38,1.37-.17,4.07-2.69,5.31-1.14C125.06,202.8,124.37,204.67,123.86,205.93Zm9.2-61c-.11.16-.21.32-.32.47a6.56,6.56,0,0,1-.35.59.47.47,0,0,1-.18.19,13.86,13.86,0,0,0-1.14,1.92,11.89,11.89,0,0,0-.79,4.79,7.85,7.85,0,0,1-1.07,4c-.06.08-.24.31-.37.23a12.08,12.08,0,0,1-5.42-8.86c-.12-2.93,0-6.34,1.61-8.9.33-.51,1.46-1.71,2.18-1.4s1.29,1.36,2.32,1.28c.7,0,1.76-.46,2.43-.19,2.17.88,2,3.51,1.17,5.52C133.18,144.63,133.17,144.76,133.06,144.94Zm28.44,59.88c-2,0-3.72-1-5.65-1.19a9,9,0,0,0-6,1.92c-3.78,2.89-6.17,7.68-7,12.31-1,5.21.75,11.08,3.52,15.55,1.56,2.53,4.26,5.82,3.35,9,0,.15-.27.5-.46.41-2-.88-2.78-2.74-4.47-3.95s-3.9-2-5.63-3.38c-3.54-2.75-3-6.75-2.29-10.71.55-3.29,2-6.37,3-9.53s2.28-7.32.12-10.33c-.14-.19.34-.8.5-.59l.18.29a3.06,3.06,0,0,1,.1-.62c0-.14.26-.61.48-.49a6.6,6.6,0,0,0,8.26-.8c1.75-1.64,2.34-3.37,3.06-5.56.6-1.83,1.63-3.33,3.8-2.62,2.75.9,7,3.08,8,6A3.21,3.21,0,0,1,161.5,204.82Zm26.17,6.71c-4.65-.09-7.21-2.9-8.48-7.16-.72-2.44-1.69-11-5.26-10.78-1.85.11-1.11-1.17-.48-2.39a3.55,3.55,0,0,1,1.59-1.59c1.31-.63,4.8-1.09,4.44-3.28-.27-1.65-1.93-1.63-1.08-3.51s3.11-2.54,4.83-3.25c.28-.12,0,.57-.24.66l-.56.23a2.28,2.28,0,0,1,2.77,1.78c.78,2.52-1.32,5-2.45,7.11-4,7.38,3.32,14.75,5.35,21.55C188.16,211.11,187.91,211.54,187.67,211.53Zm7.17,30.91c-4.36,1-4.05-6.56-4.3-9.06-.3-3.07-2-5.83-2.23-8.9a8,8,0,0,1,2.08-6.1c.05,0,.22-.24.31-.15l.31.32c.08-.07.16-.11.21-.06a9.69,9.69,0,0,1,3.16,6.64,25.07,25.07,0,0,1-.16,4,21.22,21.22,0,0,0-.54,4.63,11.18,11.18,0,0,0,1,3.9,10.67,10.67,0,0,1,1.1,2.58C196,241,195.84,242.22,194.84,242.44Zm56.49,17.4c-1.83-.52-2.75-3.44-3.43-4.92a8.79,8.79,0,0,0-3.15-4c-.51-.32-1.07-.59-1.2-1.22-.27-1.22,1.4-3.11,2.17-3.88a27.15,27.15,0,0,0,3.82-3.91,32.06,32.06,0,0,0,1.85-3.71v-.1a.78.78,0,0,1,.26-.42v0c.17-.31.65-.46.4,0-.05.08-.09.17-.14.26,0,4-.34,8.1.59,12.06a21.55,21.55,0,0,1,.48,4.09C253,254.77,253.29,260.39,251.33,259.84Zm6.85-68.73c-1.86.6-3.46-3-4.06-4.12-1.44-2.75-3.5-5.6-7-4.8-2.52.58-4.68,1.49-7.13.14-.08,0,0-.19,0-.25,1.09-2.76,3.66-2.71,5.8-4.22,1.51-1.07.4-3.27-.78-4a8.19,8.19,0,0,1-1.85-1.11c-.45-.49-.82-1.24-.34-1.83s1.24-1.24,1.78-1.93a5.32,5.32,0,0,0,.73-5c-.57-2.07-1.49-4.06-1.42-6.25.11-3.47,3.47-6,5.69-8.28a.77.77,0,0,1,.18-.31c.18-.15.65-.76,1-.55s.12.51.07.72-.08.22-.12.34a.58.58,0,0,1-.12.4l-.06.09a3.73,3.73,0,0,1-.16.35l-.24.52c0,.05-.16.34-.11.2a.65.65,0,0,1-.35.41.08.08,0,0,1-.07,0c-1.6,3.1-1.82,7-1.76,10.33A42,42,0,0,0,249,173a13.08,13.08,0,0,0,3.05,5.6c1.22,1.2,2.65,2.1,3.92,3.23a12,12,0,0,1,3.61,6.09C259.91,189.2,259.58,190.64,258.18,191.11Zm44,60c-.41,1.16-1.29,1.09-2.34,1.05-2.62-.12,0,3.13.17,4.13a1.8,1.8,0,0,1-.71,1.79c-3,2-6.45-.25-8.56-2.47-1.95-2-4.27-5-3.65-8.07,0-.16.22-.51.43-.5,1.15.06,2.84.72,3.94.22,1.57-.72,1.49-1.41,2.31-2.39a2.42,2.42,0,0,1,2.81-.72c2.16.6,2.29,3.63,3.75,5a5.56,5.56,0,0,1,1.32.59l.24,0c.1,0,.11.1.07.22A1.06,1.06,0,0,1,302.2,251.07Z"/><path class="cls-9" d="M202.68,256.25s27.08-6.31,35.76-4.73c7.36,1.84,7.36,4.73,7.89,7.36s5,2.89,5.26,8.15-7.89,31-19.46,31.56c-5.26-.53-4.73,2.1-5.26,4.73s-3.94,5.52-9.2,1.31-3.68,5-11,4.74S199,304.11,198,298.59s-3.95-25.77-11.31-31.82S183,259.41,202.68,256.25Z"/><path class="cls-10" d="M251.59,267c-.26-5.26-4.74-5.52-5.26-8.15s-.53-5.52-7.89-7.36c-8.68-1.58-35.76,4.73-35.76,4.73a133.46,133.46,0,0,0-15.24,3,32.74,32.74,0,0,0,3.47,3.09c3.7,2.86,7.79,5.05,12.51,5.49,4.9.45,9.9-.25,14.75.59a14.75,14.75,0,0,1,6.23,2.3c1.16.84,3.16,2.07,3.47,3.64a3.22,3.22,0,0,1-.83,2.58,11.53,11.53,0,0,0-2.52,5.86c-.23,2.69.39,5.46,0,8.14a67.93,67.93,0,0,1-1.63,7.46,17.68,17.68,0,0,1-3.9,7.16c4.52,2.78,7.42.17,7.9-2.23.53-2.63,0-5.26,5.26-4.73C243.7,298.06,251.85,272.29,251.59,267Z"/><path class="cls-10" d="M191.68,262.89c4.81,0,9.47-1.3,14.22-2.78a60,60,0,0,1,9.94-1.91,44.28,44.28,0,0,0,10.25-2.83c4.42-1.69,9.08-2.38,13.64-3.5-.41-.12-.83-.24-1.29-.35-8.68-1.58-35.76,4.73-35.76,4.73a133.46,133.46,0,0,0-15.24,3,32.74,32.74,0,0,0,3.47,3.09C191.17,262.53,191.42,262.7,191.68,262.89Z"/><path class="cls-11" d="M200.38,300.36c-1.12,2.51-4.14,7.3-6.91,5.52s-4.92-.19-8.28,1-3.94-4.14-8.48-3.75-.59,7.3-5.91,8.09-9.08-2.76-10.06-7.5-1.38-5.71-6.71-3.55-10.65-4.73-2.56-14c11-12.42,5.72-27,4.14-34.71s10.45-2.17,10.45-2.17c17.95,8.09,21.7,9.86,24.65,15s4.54.39,7.5,3.75,1.38,6.51-.2,10.65-2.36,12,.2,14.59S202,296.81,200.38,300.36Z"/><path class="cls-12" d="M198.21,293.26c-2.56-2.57-1.78-10.45-.2-14.59s3.16-7.3.2-10.65-4.54,1.38-7.5-3.75-6.7-6.9-24.65-15c0,0-7.73-3.55-10-1,1.39,1.3,2.78,2.61,4.08,4a23.34,23.34,0,0,1,4.57,6.61,67,67,0,0,1,2.65,8.43,31.87,31.87,0,0,0,3.12,7.82c1.05,1.79,2.77,3.92,2.92,6.05s-.85,5.47.34,7.56c.85,1.5,2.51,2.11,4.07,2.61,2.52.82,5.57,1.71,4.78,5-.59,2.44-3.6,2.44-5.58,2.48s-4.68-.11-6.24,1.34c-2,1.84-1.13,5.91-2,8.34a9.93,9.93,0,0,1-1.45,2.52,9.31,9.31,0,0,0,3.48.13c5.32-.79,1.38-7.7,5.91-8.09s5.13,4.93,8.48,3.75,5.52-2.76,8.28-1,5.79-3,6.91-5.52C202,296.81,200.77,295.82,198.21,293.26Z"/><g class="cls-5"><path class="cls-11" d="M159.32,249.86s.4.44,1,1.27,1.53,2,2.48,3.58c.47.77,1,1.6,1.48,2.5s1,1.85,1.51,2.87,1,2.07,1.46,3.15.9,2.21,1.36,3.32.78,2.28,1.16,3.4.67,2.25,1,3.33.52,2.15.76,3.15.38,2,.56,2.85.33,1.7.4,2.42.17,1.36.24,1.88c.11,1,.18,1.64.18,1.64s-.12-.59-.34-1.62c-.1-.51-.22-1.13-.37-1.84s-.35-1.51-.54-2.39-.4-1.82-.69-2.8-.56-2-.86-3.11l-1-3.28c-.39-1.11-.78-2.23-1.2-3.35s-.83-2.23-1.3-3.31-.9-2.14-1.39-3.14-.95-2-1.4-2.9-.93-1.76-1.36-2.55c-.88-1.55-1.65-2.83-2.22-3.71S159.32,249.86,159.32,249.86Z"/><path class="cls-11" d="M166,261.12a6.23,6.23,0,0,1,.71.2,17,17,0,0,1,1.81.7A19.4,19.4,0,0,1,171,263.3c.42.28.87.54,1.3.86s.86.64,1.27,1,.81.71,1.19,1.09.73.76,1.07,1.13a12.8,12.8,0,0,1,.9,1.14,10.44,10.44,0,0,1,.74,1.08c.21.35.4.67.55,1l.36.76c.2.43.3.67.3.67l-.43-.59-.48-.69-.67-.84c-.24-.32-.52-.64-.82-1s-.61-.7-1-1.05-.7-.71-1.08-1a14.36,14.36,0,0,0-1.17-1c-.79-.69-1.64-1.3-2.44-1.88-.41-.27-.8-.55-1.18-.79s-.74-.48-1.08-.67c-.68-.41-1.26-.75-1.67-1Z"/></g><path class="cls-9" d="M238.41,190s-5.87-6.4-.53-9.07,5.33-6.67,3.47-9.61-1.34-1.87,1.33-4.8-1.07-6.67-3.2-10.94S227.74,135,216.26,138.24c-7.74,3.47-10.41,4.27-10.41,11.74s-1.6,16.82-6.14,21.89,1.07,11.21,7.48,17.34S243.48,204.69,238.41,190Z"/><path class="cls-10" d="M242.68,166.53c2.67-2.94-1.07-6.67-3.2-10.94S227.74,135,216.26,138.24c-3.71,1.66-6.24,2.71-7.89,4.18a15.71,15.71,0,0,1,.74,1.48,37.78,37.78,0,0,1,2.12,8.45c.57,3.43,1.15,7,2.73,10.11,1.9,3.79,5,6.47,8.16,9.23,5.84,5.15,10.54,12,11.64,19.88a22.62,22.62,0,0,1,0,6.15c4-.51,6.36-2.72,4.64-7.71,0,0-5.87-6.4-.53-9.07s5.33-6.67,3.47-9.61S240,169.46,242.68,166.53Z"/><path class="cls-10" d="M212.33,144.72c-.2,2.83-.81,6.14,1.32,8.45,1.83,2,4.36,3,6.41,4.74,2.29,1.9,3.05,4.08,4.11,6.75.94,2.37,2.29,5.56,4.88,6.52,4.55,1.68,7-3.07,9.25-6.13a32.3,32.3,0,0,1,4-4.51c-.86-1.55-2-3.21-2.87-4.95-2.14-4.27-11.74-20.55-23.22-17.35-2,.91-3.7,1.64-5.08,2.36A5.84,5.84,0,0,1,212.33,144.72Z"/><path class="cls-11" d="M158,95.65s-1.19-3.74-4.93-3.55-2.57-2.16-1-5.52-5.72-5.52-9.07-1.18-.79,5.33-5.13,6.31-14.4,1-11,15.58c2.76,12.23,1.58,14.79-1.58,20.71s3,10.25,6.51,9.46,3.94.2,5.32,3.95S146.34,143,156,131.16,160.94,102,158,95.65Z"/><path class="cls-12" d="M128.9,135.75c1.25-3.95,3.1-7.74,3.57-11.9s.94-9-1.27-12.74a15.81,15.81,0,0,0-4.61-4.91c.07.35.14.71.23,1.09,2.76,12.23,1.58,14.79-1.58,20.71-2.3,4.31.33,7.79,3.3,9.05C128.65,136.62,128.76,136.19,128.9,135.75Z"/><path class="cls-12" d="M158,95.65s-1.19-3.74-4.93-3.55-2.57-2.16-1-5.52c1.25-2.66-3.08-4.57-6.6-3.08a21.79,21.79,0,0,0-2.58,8.39,44.37,44.37,0,0,0,.7,11,105.67,105.67,0,0,1,1.59,12c.14,3.12-.06,6.16-1.73,8.89-1.78,2.92-4.43,5.07-7,7.23s-4.89,4.51-7.81,6.1a5.41,5.41,0,0,0,3.14.38c3.55-.79,3.94.2,5.32,3.95S146.34,143,156,131.16,160.94,102,158,95.65Z"/><path class="cls-13" d="M143.83,105.66v1c0,.63,0,1.52.09,2.59s.18,2.3.35,3.61c.08.66.18,1.34.29,2s.24,1.38.38,2.07.31,1.38.46,2.06.35,1.34.52,2,.38,1.25.55,1.84.37,1.12.55,1.62.33,1,.5,1.37l.41,1,.36.92-.49-.86-.55-1c-.22-.39-.42-.84-.64-1.33s-.47-1-.69-1.6-.48-1.17-.67-1.82-.43-1.31-.59-2-.36-1.38-.49-2.09a35.44,35.44,0,0,1-.59-4.19c-.08-.67-.08-1.32-.11-1.94s0-1.2,0-1.74a23.23,23.23,0,0,1,.2-2.59C143.76,106,143.83,105.66,143.83,105.66Z"/><path class="cls-9" d="M160.53,127.44s5.1-6.15-3.18-17.63.21-18.9,4.46-18.69,7-.42,10.61-4.88,9-5.49,11.69-1.91c4.31,5.63,5.79,5,9.78,2.9s8.39-1.76,11.55,1,5.79,4.86,2,11.56.59,9.87-4.93,14.8-3.16,3.75-5.13,7.29-3.55,3-7.89,5.13-5.52,4.74-7.3,9.47,6.51,35.89-.85,39.84-10.25,4.46-7.36,8.15.26,4.2-3.16,5-4.73,3.95-2.89,6.84,2.1,3.68-6.57-2.89S129.43,166.66,160.53,127.44Z"/><path class="cls-10" d="M205.44,88.23c-3.16-2.76-7.56-3.06-11.55-1-2.81,1.44-4.37,2.19-6.55.56a25.67,25.67,0,0,1-2.75,5.4c-1.43,2.13-3.19,4.15-4.22,6.52-1.51,3.44-1.24,7.13-1.75,10.79-.3,2.15-.78,5-2.7,6.38a4.35,4.35,0,0,1-5.43-.48c-4.83-3.91-9-9.08-12.7-14.06A12.82,12.82,0,0,1,155,95.8c-1.76,3.27-1.95,8.11,2.32,14,8.28,11.48,3.18,17.63,3.18,17.63-31.1,39.22-7.81,59.39.87,66s8.41,5.78,6.57,2.89-.53-6.05,2.89-6.84,6-1.31,3.16-5,0-4.21,7.36-8.15-.92-35.11.85-39.84,3-7.3,7.3-9.47,5.92-1.58,7.89-5.13-.39-2.36,5.13-7.29,1.18-8.09,4.93-14.8S208.6,91,205.44,88.23Z"/><path class="cls-14" d="M184.49,95.86a2,2,0,0,0-.66.26,5.15,5.15,0,0,0-1.47,1.36,10.11,10.11,0,0,0-1.46,2.74,24.26,24.26,0,0,0-1.09,3.91,42.72,42.72,0,0,0-.62,4.76c-.15,1.7-.2,3.52-.34,5.39s-.26,3.81-.53,5.78a26,26,0,0,1-.55,3,11.69,11.69,0,0,1-1.21,2.85,16.61,16.61,0,0,1-4.48,4.11,33.88,33.88,0,0,0-4.45,3.59,20.47,20.47,0,0,0-3.27,4.17,19.15,19.15,0,0,0-1.84,4.38c-.21.71-.34,1.42-.49,2.08s-.23,1.3-.28,1.9-.11,1.17-.16,1.69,0,1,0,1.45c0,.87,0,1.56,0,2s0,.71,0,.71l-.06-.71c0-.47-.12-1.15-.12-2,0-.44,0-.92,0-1.45s.05-1.1.07-1.72.14-1.25.21-1.94.24-1.39.43-2.12a19.21,19.21,0,0,1,1.77-4.56,18.92,18.92,0,0,1,3.29-4.37,34.62,34.62,0,0,1,4.5-3.7,16.14,16.14,0,0,0,4.25-3.93,10.45,10.45,0,0,0,1.13-2.63,25.35,25.35,0,0,0,.56-2.86c.28-1.94.43-3.87.58-5.73s.26-3.67.45-5.39a42.57,42.57,0,0,1,.76-4.81,22.06,22.06,0,0,1,1.25-3.92,10.74,10.74,0,0,1,1.61-2.73,5.13,5.13,0,0,1,1.57-1.3A1.86,1.86,0,0,1,184.49,95.86Z"/><path class="cls-11" d="M86.78,253.82s-8.87,7.69-8.87,14.79,7.1.59,6.7,4.73,1,12.43,8.29,10.65,5.52.79,7.89,4.74,6.46,8.89,13.6,7.09c3.16-.79,5.19-7.1,3.5-9.21s-2.19-2.86-.93-3.79,1.77-5.14,1.18-9.87,3.94-23.47,9.27-31.95,1.58-9.27-.79-11.83-1.77-11-10.25-8.68-12.82,6.11-12.23,15.58S95.86,245.93,86.78,253.82Z"/><path class="cls-12" d="M87.18,260.05c2.63,3.38,6.47,6.19,10.87,6.46a7.69,7.69,0,0,0,3.71-.5,4.34,4.34,0,0,0,2.22-5.86,35.31,35.31,0,0,1-2-5.5,7.78,7.78,0,0,1,2-6.86c2.7-3,7.34-4.63,8.5-8.77,1.33-4.7-1-9.38.1-14a9.8,9.8,0,0,1,2-4c-7.31,2.4-11,6.25-10.46,15,.59,9.46-8.28,9.86-17.36,17.75a37.11,37.11,0,0,0-2.64,2.62A27.05,27.05,0,0,1,87.18,260.05Z"/><path class="cls-12" d="M126.62,229.17c-1.83-2-1.89-7.53-5.77-8.82a10.47,10.47,0,0,1,.17,2.25c-.24,7.38-5.75,13.6-10,19.13-2.76,3.54-5.86,7.22-7.18,11.6-1.85,6.12-1.66,12.59-1.55,18.91,0,1.76.51,4.44-1.26,5.59a16.15,16.15,0,0,1-4.59,1.7,49.09,49.09,0,0,1-6.48,1.37c-1.26.17-2.54.3-3.82.39,1.25,2.14,3.37,3.54,6.81,2.7,7.29-1.77,5.52.79,7.89,4.74s6.46,8.89,13.6,7.09c3.16-.79,5.19-7.1,3.5-9.21s-2.19-2.86-.93-3.79,1.77-5.14,1.18-9.87,3.94-23.47,9.27-31.95S129,231.73,126.62,229.17Z"/><path class="cls-13" d="M103.74,270.78s-.06-.68-.08-1.86c0-.59,0-1.31,0-2.14,0-.41,0-.85.07-1.31s.09-1,.14-1.45c.1-1,.28-2.1.45-3.26s.4-2.37.74-3.59c.15-.62.31-1.25.47-1.88l.57-1.91c.36-1.28.86-2.55,1.31-3.83s1.08-2.5,1.6-3.73,1.2-2.36,1.77-3.51,1.27-2.15,1.87-3.15,1.26-1.88,1.83-2.72,1.09-1.61,1.64-2.23l1.37-1.65,1.19-1.42-1.07,1.52c-.35.47-.77,1.06-1.25,1.72a12.14,12.14,0,0,0-.73,1.09l-.78,1.22c-.54.85-1.18,1.74-1.71,2.77s-1.18,2.06-1.76,3.18-1.16,2.28-1.7,3.49-1.08,2.44-1.53,3.7-1,2.5-1.35,3.77c-.2.64-.4,1.26-.59,1.88s-.33,1.24-.49,1.85c-.34,1.22-.57,2.41-.84,3.53s-.44,2.21-.57,3.21-.27,1.92-.36,2.73-.14,1.54-.18,2.12C103.74,270.1,103.74,270.78,103.74,270.78Z"/><path class="cls-11" d="M68.3,166.21s8.58.59,7.61-5.07-1-8.77,7.21-9.36,16.78,1.76,21.07,7.8,8.78-5.46,18.33-4.29,8,10.92,17.56,24.19,9.75,17.75,7.8,21.26-7,1-14.82-1.17-9.17-.78-13.85,1-8.39,1-15-3.9-15.6-8-23-6.24-9.76-2.15-9-8.78c.78-5.26.78-5.46-3.31-4.68s-6.24-1.75-5.47-5.65S66,166.22,68.3,166.21Z"/><path class="cls-12" d="M103.89,196.43a6.42,6.42,0,0,0,1.58-4.43c-.06-.81,0-2.84-1.06-3.19-1.72-.6-3.75.12-5.17-1.45s-1.54-4.24-3.26-5.64a12.49,12.49,0,0,0-8.76-2.34c-4.51.53-7.66,3.06-9.84,6.92a37.19,37.19,0,0,1-2.4,3.89c1.45.73,3.48.85,6.2.21C88.48,188.67,97.29,191.68,103.89,196.43Z"/><path class="cls-12" d="M140.08,179.48c-9.56-13.27-8-23-17.56-24.19s-14,10.34-18.33,4.29-12.87-8.38-21.07-7.8-8.19,3.71-7.21,9.36c.63,3.68-2.77,4.72-5.23,5l.27.06c7.23,2.12,13.44,6.61,20.1,10a28.27,28.27,0,0,0,11.37,3.41c5.94.31,12.25-1,18.06.67,8.09,2.36,15.6,6.81,20,14.21a31.26,31.26,0,0,1,3.33,8c1.87.17,3.24-.23,4-1.7C149.83,197.23,149.64,192.74,140.08,179.48Z"/><path class="cls-13" d="M88.4,174.07s.8.06,2.19.24a50.41,50.41,0,0,1,5.72,1.06c1.17.31,2.43.65,3.73,1.13a21.47,21.47,0,0,1,3.93,1.9,9.19,9.19,0,0,0,4.34.7c1.56,0,3.16-.17,4.76-.24a33.55,33.55,0,0,1,9.45.76,22,22,0,0,1,4.12,1.49,23.36,23.36,0,0,1,3.37,2,23.63,23.63,0,0,1,2.56,2.1c.72.66,1.3,1.28,1.77,1.8s.81,1,1,1.25l.37.44-.4-.42c-.26-.26-.62-.68-1.13-1.16s-1.11-1.08-1.86-1.7-1.62-1.27-2.6-1.94a24.22,24.22,0,0,0-3.37-1.82,25.3,25.3,0,0,0-4.05-1.34,32.36,32.36,0,0,0-9.24-.64c-1.6,0-3.19.17-4.79.18a9.68,9.68,0,0,1-4.68-.84,25.46,25.46,0,0,0-3.81-2,35.68,35.68,0,0,0-3.64-1.24c-2.3-.65-4.25-1.09-5.62-1.34S88.4,174.07,88.4,174.07Z"/><path class="cls-9" d="M247.76,200.91a29.67,29.67,0,0,1,19.56-8.53c5.2-.2,6-3.12,15.4-6.86s19.55-5.62,20.18,1.24-2.71,10.2,5.2,10.2,12.69,1.25,10.61,7.91c-1.46,5.4,3.53,3.74,5.62,8.73s2.91,8.33-1.46,10.61-7.07,3.75-7.49,9.57,1.66,8.12-5.83,11-7.69.83-10.81-1.87-3.75-1.46-7.91.83-9.36,1.25-10-2.5-.41-5.82-3.95-5-6.66,0-10.61-5c-2.91-3.12-5.83-2.5-6.66-6.87s-2.7-6.45-6.86-7.7S239.86,209.24,247.76,200.91Z"/><path class="cls-10" d="M311.88,225.15c-9.33,0-16.47-5.3-23.72-10.53a57.1,57.1,0,0,0-13.93-7.28,134.34,134.34,0,0,1-13.65-5.8,73.2,73.2,0,0,1-7.82-4.6,26.18,26.18,0,0,0-5,4c-7.9,8.33.84,14.57,5,15.81s6,3.33,6.86,7.7,3.75,3.75,6.66,6.87c4,5,7.07,5.82,10.61,5s3.33,1.25,3.95,5,5.83,4.79,10,2.5,4.79-3.54,7.91-.83,3.32,4.78,10.81,1.87,5.41-5.2,5.83-11,3.12-7.28,7.49-9.57c2.12-1.1,3-2.46,3.13-4.12A22.42,22.42,0,0,1,311.88,225.15Z"/><g class="cls-5"><path class="cls-9" d="M261.7,203s2.69.6,6.6,1.92c1,.35,2,.7,3.13,1.13s2.27.86,3.46,1.37,2.39,1.07,3.63,1.62,2.45,1.2,3.68,1.83,2.42,1.32,3.58,2,2.31,1.38,3.36,2.14,2.11,1.41,3,2.18,1.82,1.41,2.58,2.11,1.46,1.34,2.07,1.91,1.08,1.15,1.49,1.58l1.27,1.4-1.38-1.29c-.44-.41-.94-.94-1.58-1.47s-1.37-1.13-2.15-1.79-1.71-1.28-2.65-2-2-1.34-3.05-2.07-2.22-1.36-3.36-2.07-2.37-1.31-3.56-2-2.43-1.26-3.64-1.85-2.4-1.16-3.58-1.66-2.31-1-3.4-1.47-2.12-.86-3.07-1.24c-1.92-.73-3.52-1.35-4.66-1.73Z"/><path class="cls-9" d="M286.67,213.6s.2-.11.56-.26a12.18,12.18,0,0,1,1.53-.56,16.39,16.39,0,0,1,2.25-.51c.43,0,.86-.13,1.3-.15s.9-.06,1.35-.05.91,0,1.36.06a11,11,0,0,1,1.3.17,8.32,8.32,0,0,1,1.19.26,6.85,6.85,0,0,1,1.05.32,9.68,9.68,0,0,1,1.5.64l.55.29s-.22,0-.6-.14l-.68-.18-.89-.17c-.32-.08-.67-.13-1-.19s-.77-.11-1.18-.14-.82-.08-1.25-.1-.87,0-1.31,0c-.87,0-1.74,0-2.56.1-.41,0-.81.07-1.18.12l-1.06.14c-.66.1-1.21.18-1.59.26Z"/></g><path class="cls-11" d="M261.69,194.48s-1.09-10.48,5.95-21.74,17.67-16.11,22.83-24.86,8-12.51,17.19-13.29,8.61,3.28,8,5.32,1.41,4.37,4.38,4.84,7.19,5.63,5.94,8.92c4.53,2.66,4.38,4.06,1.72,8s-.16,3.75,1.41,8.13,1.4,9.23-4.07,11.57-5.78-.15-7.82-1.72-4.22.47-5.94,2.19-7.66,5-14.07,5.16-5.16,4.85-10.48,1.1c-3.75-2.66-5.63-1.26-8.76,1.25s-8.13,8.29-11.56,8.29S261.85,196.2,261.69,194.48Z"/><path class="cls-12" d="M264.4,181.32a24.74,24.74,0,0,1,3.84-3.47,19.36,19.36,0,0,1,4.87-1.94,29.42,29.42,0,0,0,11.42-5.71c4-3.32,6.71-7.22,7.5-12.43.4-2.64.21-5.1,2.47-6.87,2.07-1.63,6.4-2.22,5.28-5.8-.77-2.46-2.65-4.22-2.45-6.67-2.4,2.13-4.36,5.2-6.86,9.45-5.16,8.75-15.8,13.61-22.83,24.86a39.7,39.7,0,0,0-4.34,9.49A13.26,13.26,0,0,0,264.4,181.32Z"/><path class="cls-12" d="M327.68,161.64c2.66-3.91,2.81-5.31-1.72-8a4.71,4.71,0,0,0-.16-3.25,32.81,32.81,0,0,0-5,.41,39.41,39.41,0,0,0-14.92,5.7c-4.25,2.73-8.1,6-12.23,8.92a93.69,93.69,0,0,0-11.45,9.29c-3.84,3.74-7.48,7.79-11.09,11.75a42.77,42.77,0,0,1-8.44,7.46c-.31.2-.63.38-.94.57.17,1.7,1.27,3.09,4.69,3.09s8.44-5.79,11.56-8.29,5-3.91,8.76-1.25c5.32,3.75,4.07-.94,10.48-1.1s12.35-3.44,14.07-5.16,3.91-3.75,5.94-2.19,2.35,4.07,7.82,1.72,5.63-7.19,4.07-11.57S325,165.55,327.68,161.64Z"/><g class="cls-5"><path class="cls-11" d="M266.84,190.32s.47-.61,1.35-1.63,2.14-2.47,3.75-4.13c.8-.83,1.68-1.73,2.62-2.65s1.95-1.9,3-2.89,2.18-2,3.33-3,2.32-2,3.53-2.95,2.43-1.9,3.66-2.78L289.9,169l1.82-1.24,1.75-1.19,1.74-1.07c1.13-.69,2.19-1.36,3.21-1.9l2.77-1.51,2.19-1.05,1.92-.9-1.85,1-2.12,1.17L298.65,164c-1,.58-2,1.28-3.13,2l-1.69,1.11-1.73,1.22-1.79,1.26-1.79,1.35c-1.22.89-2.41,1.85-3.6,2.81s-2.38,1.93-3.55,2.89-2.26,2-3.35,2.9-2.11,1.88-3.07,2.79-1.87,1.74-2.7,2.55c-1.65,1.6-3,2.95-3.95,3.92Z"/><path class="cls-11" d="M283,174.74a19.36,19.36,0,0,1,2.29-1.12c.35-.16.74-.3,1.16-.45s.84-.31,1.3-.46c.92-.26,1.9-.57,2.9-.77l1.5-.29a10.82,10.82,0,0,1,1.46-.19l1.38-.13a7.56,7.56,0,0,1,1.24-.05c.77,0,1.4.05,1.85.06l.7,0-.7.12c-.44.05-1.07.15-1.82.23s-1.61.28-2.54.41-1.91.38-2.9.57c-.5.08-1,.21-1.46.33l-1.42.34c-.91.26-1.77.45-2.5.67s-1.34.36-1.77.49Z"/><path class="cls-11" d="M292.48,167.83a9.94,9.94,0,0,1,.39-1.67,17.25,17.25,0,0,1,.6-1.66c.24-.6.58-1.21.89-1.82l.55-.88a8,8,0,0,1,.57-.82l.6-.72c.2-.22.37-.44.57-.62a15.67,15.67,0,0,1,1.35-1.07s-.39.59-1,1.37c-.15.2-.28.45-.44.68s-.32.5-.5.75-.32.56-.5.84-.34.57-.51.86l-.48.87c-.15.3-.33.57-.46.86l-.81,1.53Z"/></g><path class="cls-9" d="M272.17,157.72S266.2,143.05,261,136s-7.07-25.36-4.17-37.67c3.26-8.51,5.8-9.24,10.14-6.52s6.34,6.52,9.42,4.16,7.06-4,11.59-.72,4.35,3.62,4.35,6.7-.91,6.88,4.34,9.42,6.34,5.79,6.34,10.87-1.63,6.51-6.34,8.5-4.34,4.17-1.81,7.07,4.17,7.06,1.63,8.69-3.08,0-3.8,4S284.31,172.93,272.17,157.72Z"/><path class="cls-10" d="M296.62,130.73c4.71-2,6.34-3.43,6.34-8.5s-1.09-8.34-6.34-10.87-4.34-6.34-4.34-9.42.18-3.44-4.35-6.7a8.24,8.24,0,0,0-8.66-1c-3.37,7.67-6.42,15.68-6.78,24-.1,2.45-.22,5.2.69,7.52.72,1.83,1.1,8.35,2.39,9.82s3.58-2.05,4.41-.2a21.8,21.8,0,0,1,1.6,5.7c1.1,7.1.4,14.66-2.91,21.12-.13.26-.28.5-.42.74,8.56,3.85,13.79-9.18,14.39-12.44.72-4,1.27-2.36,3.8-4s.91-5.8-1.63-8.69S291.91,132.73,296.62,130.73Z"/><g class="cls-5"><path class="cls-9" d="M274.35,110.09s-.4,1.6-.73,4c-.19,1.21-.31,2.64-.42,4.16,0,.77-.09,1.56-.1,2.36,0,.4,0,.81,0,1.21l0,1.22c0,.82.07,1.63.12,2.44s.15,1.58.22,2.34.21,1.49.31,2.19.23,1.34.36,1.94.23,1.16.35,1.65l.33,1.24c.17.71.27,1.11.27,1.11s-.15-.39-.42-1.06c-.13-.33-.28-.74-.46-1.21s-.33-1-.5-1.62-.36-1.24-.5-1.94-.34-1.43-.42-2.21-.26-1.56-.3-2.37-.14-1.65-.15-2.47v-1.25l0-1.23c0-.82.11-1.62.17-2.39s.19-1.52.3-2.22.23-1.36.37-2a28.76,28.76,0,0,1,.78-2.89A11.3,11.3,0,0,1,274.35,110.09Z"/><path class="cls-9" d="M268.19,114.44s.31.6.73,1.51.95,2.11,1.5,3.31l.41.89c.15.29.25.6.4.86s.27.55.4.8.22.51.34.73c.48.86.75,1.49.75,1.49a15.79,15.79,0,0,1-1.13-1.25,6.05,6.05,0,0,1-.47-.67l-.5-.77c-.34-.53-.61-1.15-.92-1.75s-.52-1.24-.72-1.84a17.18,17.18,0,0,1-.49-1.66A10.38,10.38,0,0,1,268.19,114.44Z"/><path class="cls-9" d="M276,124.22s-.2.39-.49,1c-.16.28-.31.63-.5,1-.09.18-.15.38-.25.56s-.19.37-.26.57-.15.39-.23.58a3.28,3.28,0,0,0-.21.57c-.05.18-.11.36-.17.54a2,2,0,0,0-.15.49,8.17,8.17,0,0,1-.28,1.07,7.66,7.66,0,0,1-.17-1.12,5.46,5.46,0,0,1,.1-1.16,7.19,7.19,0,0,1,.39-1.28c.08-.21.2-.4.3-.6s.22-.39.33-.56a7.26,7.26,0,0,1,.73-.9A4.2,4.2,0,0,1,276,124.22Z"/></g><path class="cls-11" d="M214.05,149.07s4-8.25-2.22-10.31-8.88-4.6-7-13.8c1.43-8.09.16-9.84-1.27-16.5s1.9-7.94,4-11.27,4.44-6.66,9.2-5.55,6.5,4,6.5,4S229.44,79.75,236.1,81s6.19,7,4.44,9.52-2.69,6.19,2.86,6.51,8.88,3.8,8.88,6.66-1.9,4.28.32,6.34,2.54,3.65,3,7.78,1.27,9.36,2.86,12.21.79,3-3.33,5.08-3.33,3-3,6.18-2.23,5.08-6.19,8.1-5.87,5.71-6.51,11.73-2.69,8.57-8.09,8.89-6.34-4.28-7.45-8.89-4.29-6.34-7.14-7.29S213.1,151.45,214.05,149.07Z"/><path class="cls-12" d="M258.47,130c-1.59-2.85-2.38-8.09-2.86-12.21s-.79-5.72-3-7.78-.32-3.49-.32-6.34S249,97.35,243.4,97s-4.6-4-2.86-6.51c1.47-2.13,2-6.51-1.8-8.6-1.08,4.77-4.46,9.33-7.15,13.29-2.19,3.2-5.87,7.76-3.43,11.64a50,50,0,0,1,3.23,5.28c.64,1.38,1.69,3.29,1.45,4.88a4.83,4.83,0,0,1-1.82,3.37c-1,.77-1.93.94-2.43,2.38a12,12,0,0,0-.78,4.39c.17,4.41,2.73,7,6.71,8.19,2.29.7,5.74,1.18,7.35,3.12,1.27,1.52-1.16,3.32-2.25,4a9.07,9.07,0,0,1-4.24,1.45c-1,0-2-.2-3-.21-2,0-2.1,2.76-2.3,4.25-.28,2.16-.49,4.32-.56,6.49a68,68,0,0,0,.78,14.11c.08.48.17,1,.27,1.49q.36,0,.75,0c5.4-.32,7.46-2.86,8.09-8.89s2.54-8.72,6.51-11.73,6.5-4.92,6.19-8.1-1.12-4.12,3-6.18S260.05,132.89,258.47,130Z"/><g class="cls-5"><path class="cls-11" d="M218.92,128.39l1.05,1.23c.67.8,1.64,1.91,2.71,3.33l1.75,2.27c.62.8,1.28,1.64,1.94,2.55l.95,1.38c.31.49.63,1,.93,1.49a11,11,0,0,1,1.27,3.41,15.77,15.77,0,0,1,.15,1.81c0,.6,0,1.2,0,1.78-.06,1.17-.17,2.31-.18,3.4a52,52,0,0,0,.29,6,41.77,41.77,0,0,0,.64,4.21,7.24,7.24,0,0,0,.32,1.15c.09.27.24.33.25.31s0,0-.1,0a1,1,0,0,1-.19-.26,6.8,6.8,0,0,1-.43-1.13,31.17,31.17,0,0,1-.93-4.19,41.07,41.07,0,0,1-.53-6.07c0-1.12.08-2.27.13-3.42,0-.57,0-1.15,0-1.73a16,16,0,0,0-.17-1.7,9.84,9.84,0,0,0-1.13-3.18l-.87-1.45-.94-1.4c-1.28-1.78-2.46-3.49-3.48-4.94l-1.37-2c-.43-.58-.79-1.09-1.09-1.51Z"/><path class="cls-11" d="M228.38,123.07s0,.36,0,1,0,1.55,0,2.64c0,.55,0,1.14.05,1.76s.06,1.28.14,1.95.13,1.37.27,2.06.24,1.42.37,2.14.19,1.46.26,2.18.09,1.44.13,2.13,0,1.35,0,2,0,1.23,0,1.78c0,1.09-.1,2-.13,2.65s-.09,1-.09,1-.09-1.46-.23-3.64c0-1.1-.16-2.37-.26-3.72-.06-.68-.11-1.39-.2-2.09s-.13-1.41-.28-2.14-.23-1.44-.34-2.15a15.83,15.83,0,0,1-.21-2.13c-.06-.69,0-1.36,0-2s0-1.23.08-1.78c.07-1.1.21-2,.3-2.64S228.38,123.07,228.38,123.07Z"/><path class="cls-11" d="M240.22,125l-.12.21c-.08.14-.19.34-.35.58s-.37.54-.59.88a12.7,12.7,0,0,1-.83,1.1l-1,1.27c-.38.43-.79.88-1.22,1.33-.86.91-1.77,1.88-2.69,2.84-.38.52-.83,1-1.16,1.53a12.11,12.11,0,0,0-.95,1.61l-.39.81c-.11.27-.21.54-.31.8a11.5,11.5,0,0,0-.44,1.52c-.14.48-.19.93-.28,1.33s-.13.74-.17,1l-.14.91s0-.34,0-.92c0-.29,0-.65,0-1.06a8.75,8.75,0,0,1,.13-1.37,11.93,11.93,0,0,1,.34-1.61l.24-.86c.11-.3.25-.58.37-.87a10.49,10.49,0,0,1,.94-1.74c.35-.58.82-1.1,1.23-1.65l1.4-1.44,1.36-1.34,1.3-1.24,1.1-1.17c.33-.37.67-.68.93-1s.5-.57.69-.79C240,125.3,240.22,125,240.22,125Z"/></g><path class="cls-9" d="M208.82,255.75s-13.64,14.3-45.7-5.43c-15.78-11.34-20.88-28.6-14.3-39.78,5.26-7.07,10.35-6.41,11.83-1.65,4.77-4.44,9.54,1.16,18.08,3.29,7.24,1.65,10.2,7.89,6.58,13-2.14,2.3,1.48,2.47,2.79,5.59s-3.28,9-3.28,9,4.76-.82,5.42,4.93C196.49,243.58,203.06,251.47,208.82,255.75Z"/><path class="cls-10" d="M190.24,244.73c-.66-5.75-5.42-4.93-5.42-4.93s4.6-5.92,3.28-9-4.93-3.29-2.79-5.59c3.62-5.1.66-11.34-6.58-13-8.54-2.13-13.31-7.73-18.08-3.29-1.05-3.39-3.94-4.7-7.42-2.61a5.62,5.62,0,0,1,.73.67c3.13,3.43,2.36,9.14,2.21,13.34a21.89,21.89,0,0,0,.68,7.94,31,31,0,0,0,3.19,6.32,35,35,0,0,0,9.16,9.78c1.88,1.35,3.85,2.53,5.84,3.7,2.34,1.37,4.53,3,6.85,4.39a21.92,21.92,0,0,0,6.49,2.67,19.75,19.75,0,0,1,5.25,1.68,6.91,6.91,0,0,1,3.28,3.8c8.16-.91,11.91-4.82,11.91-4.82C203.06,251.47,196.49,243.58,190.24,244.73Z"/><g class="cls-5"><path class="cls-9" d="M192.21,256.73s-.75-.18-2.05-.59-3.14-1-5.28-2a63.85,63.85,0,0,1-7.14-3.56c-1.26-.74-2.54-1.54-3.8-2.42s-2.52-1.81-3.73-2.79-2.36-2.06-3.43-3.16l-.8-.83-.76-.85c-.51-.55-1-1.13-1.43-1.71a32.07,32.07,0,0,1-2.42-3.47c-.36-.56-.66-1.14-1-1.69s-.57-1.1-.82-1.64a30.86,30.86,0,0,1-1.21-2.95c-.29-.9-.52-1.69-.71-2.35l-.46-2.09s.22.75.61,2.05c.22.64.5,1.41.84,2.29s.78,1.84,1.33,2.86c.26.52.54,1,.87,1.58s.63,1.1,1,1.64c.73,1.11,1.56,2.22,2.46,3.34.46.56.92,1.13,1.43,1.67l.76.83.8.8c1.06,1.07,2.22,2.08,3.4,3.07s2.4,1.93,3.65,2.8,2.49,1.68,3.73,2.44,2.45,1.44,3.62,2.06,2.3,1.18,3.35,1.68c2.1,1,3.88,1.74,5.15,2.22S192.21,256.73,192.21,256.73Z"/><path class="cls-9" d="M176.27,249.17a8.06,8.06,0,0,1-1.12-1.43,11.61,11.61,0,0,1-.88-1.63c-.13-.32-.28-.64-.39-1s-.23-.69-.32-1a11.27,11.27,0,0,1-.34-2.12,6.6,6.6,0,0,1,0-1,5,5,0,0,1,.05-.88,7.75,7.75,0,0,1,.25-1.29l.14-.48s0,.18,0,.5v.56c0,.21,0,.45.05.72a16.31,16.31,0,0,0,.2,1.79c.05.32.11.65.18,1s.14.68.23,1c.16.67.39,1.33.59,2,.12.31.21.61.33.89s.22.55.31.79C176,248.51,176.27,249.17,176.27,249.17Z"/><path class="cls-9" d="M160.82,240.79l.36.11.93.34c.38.14.81.32,1.26.53s1,.39,1.46.6l.72.34a5.35,5.35,0,0,0,.7.31c.46.19.89.38,1.25.56.73.36,1.21.66,1.21.66a11.6,11.6,0,0,1-1.35-.23c-.4-.08-.87-.2-1.36-.34a4.45,4.45,0,0,1-.75-.26l-.74-.32c-.5-.23-1-.46-1.44-.7s-.85-.52-1.18-.76a6,6,0,0,1-.79-.59Z"/></g><path class="cls-11" d="M222.09,181.61c-3.48,0-4.87.17-4.18-2.26s.87-5.56-5-6.61-9,2.44-11.12,6.09-5.22,6.95-7.31,5.74-8.52,0-9.56,8.17,2.43,15.81,5.57,20.69,7.64,7.24,6.08,17.32c-2.44,12,5.91,11.42,5.91,11.42H203c22.43-8.58,24.69-41.15,24.86-48.28S225.56,181.61,222.09,181.61Z"/><path class="cls-12" d="M222.09,181.61c-3.48,0-4.87.17-4.18-2.26s.87-5.56-5-6.61a12.3,12.3,0,0,0-2.2-.18c4.23,5.8,7.18,12.6,7,19.84a28.62,28.62,0,0,1-3.52,13.25c-2.44,4.44-5.74,8.37-7.94,12.94-3.05,6.34-3.63,13.73-7.34,19.79a20.75,20.75,0,0,1-1.23,1.78,6.13,6.13,0,0,0,4.77,2.12H203c22.43-9,24.69-41.2,24.86-48.33S225.56,181.61,222.09,181.61Z"/><g class="cls-5"><path class="cls-11" d="M212.21,194.46s0,.61,0,1.67-.07,2.59-.25,4.4c-.06.92-.19,1.89-.3,2.94s-.27,2.13-.47,3.25-.4,2.29-.65,3.46-.5,2.37-.78,3.55-.64,2.35-1,3.51-.71,2.27-1.05,3.36-.75,2.12-1.11,3.1-.75,1.9-1.11,2.73-.67,1.62-1,2.28l-.85,1.73-.75,1.49s.23-.57.61-1.56l.72-1.77c.27-.69.53-1.48.86-2.33s.67-1.77,1-2.76.68-2,1-3.12.7-2.19,1-3.35.64-2.32.9-3.49.59-2.35.83-3.52.48-2.31.69-3.43.4-2.19.58-3.22.32-2,.43-2.9c.25-1.8.43-3.3.54-4.36Z"/><path class="cls-11" d="M204.29,198s.17.2.43.57.63.91,1,1.58.85,1.48,1.27,2.36a27.19,27.19,0,0,1,1.19,2.84c.18.49.32,1,.48,1.49s.25,1,.37,1.47.17,1,.23,1.41.08.88.11,1.27,0,.76,0,1.08a5.68,5.68,0,0,1-.08.82c-.06.46-.11.72-.11.72s0-.27,0-.73a6.43,6.43,0,0,0-.06-.8c-.05-.31-.1-.66-.15-1l-.23-1.22c-.11-.43-.22-.88-.34-1.34-.26-.93-.55-1.91-.91-2.87-.18-.48-.34-1-.53-1.44s-.36-.93-.55-1.37c-.37-.9-.73-1.72-1-2.44s-.59-1.3-.77-1.71Z"/><path class="cls-11" d="M214.68,211.81a21,21,0,0,1-.91,2,35.21,35.21,0,0,1-2.49,4.16c-.53.7-1,1.44-1.56,2.06s-1,1.23-1.51,1.7-.89.83-1.16,1.1l-.46.4.34-.51c.23-.3.53-.77.93-1.28.21-.26.4-.56.62-.87s.45-.63.68-1,.48-.68.73-1,.5-.7.75-1.06.49-.72.74-1.07.49-.7.72-1c.46-.68.91-1.29,1.29-1.83s.7-1,.93-1.3S214.68,211.81,214.68,211.81Z"/></g><path class="cls-9" d="M99.8,265.85s-7.3-.79-23.07-17.36c-13.41-12-11.44-17-10.85-23.47.79-7.29-6.31-11.63-2.37-19.12s6.37-6.85,8.61-7.28,4.11-6.14,5.79-10.57,6.61-8.48,12.33-7,7.29,6.21,7.88,8.28,1.88,1.68,3.45,1.09,2.9.75,3.69,4.17,4.07,4.21,7.23,7.23,6,6.71,3.68,10.65-.79,6.31-4.34,9.07-3.94,4.34-2.76,10.13,2.63,8.28-2.37,12-8.28,5.65-6.57,11,3.68,8.68,3.15,10A2.65,2.65,0,0,1,99.8,265.85Z"/><path class="cls-10" d="M112.49,201.82c-3.16-3-6.44-3.81-7.23-7.23s-2.11-4.76-3.69-4.17-2.85,1-3.45-1.09a11,11,0,0,0-7.57-8.18c0,.85,0,1.7,0,2.52-.36,6-2,11.8-3.92,17.42-1.78,5.29-4.74,10.74-5.29,16.33s1.25,11.09,3.16,16.19c1,2.81,1.78,5.7,2.67,8.56A69.65,69.65,0,0,0,90.28,250a40.66,40.66,0,0,1,3.59,13.19c4,2.44,5.93,2.65,5.93,2.65a2.65,2.65,0,0,0,3.48-1.19c.53-1.31-1.44-4.6-3.15-10s1.58-7.36,6.57-11,3.55-6.18,2.37-12-.79-7.37,2.76-10.13,2-5.13,4.34-9.07S115.64,204.84,112.49,201.82Z"/><g class="cls-5"><path class="cls-9" d="M98,263.43s-.64-.79-1.63-2.27c-.51-.73-1.07-1.64-1.72-2.69s-1.33-2.28-2-3.63S91.2,252,90.52,250.4s-1.33-3.33-2-5.12-1.23-3.67-1.79-5.58c-.3-.95-.59-1.91-.85-2.89s-.54-1.95-.79-2.93-.46-2-.69-3-.37-2-.55-3-.29-2-.4-2.95-.21-1.94-.28-2.9-.11-1.88-.13-2.8,0-1.82,0-2.69.07-1.73.1-2.55.15-1.61.22-2.37.17-1.48.27-2.17.19-1.34.31-2c.26-1.21.44-2.27.67-3.13.46-1.71.73-2.69.73-2.69h.07s-.18,1-.5,2.74c-.15.87-.28,1.94-.47,3.15-.08.61-.12,1.26-.2,1.94s-.16,1.4-.19,2.16S84,213.29,84,214.1s0,1.65-.07,2.52,0,1.75,0,2.66.09,1.83.13,2.77.14,1.9.21,2.87.22,1.94.34,2.92c.27,2,.58,4,1,5.94A60.62,60.62,0,0,0,89,245.13c.71,1.75,1.47,3.42,2.18,5s1.41,3.06,2.09,4.41,1.32,2.57,1.89,3.67,1.11,2,1.55,2.78c.87,1.54,1.42,2.39,1.42,2.39Z"/><path class="cls-9" d="M88.52,242l-.15-.25c-.1-.17-.2-.44-.35-.78a7.31,7.31,0,0,1-.38-1.28c-.06-.25-.13-.52-.19-.8s-.07-.58-.11-.89c0-.63-.14-1.31-.13-2s.14-1.47.22-2.25c0-.39.08-.79.13-1.19s.13-.79.18-1.2c.12-.8.19-1.63.26-2.46a15.24,15.24,0,0,1,.37-2.45c.16-.81.33-1.6.49-2.36a15.42,15.42,0,0,1,.57-2.18c.23-.68.46-1.31.68-1.89.43-1.18.83-2.14,1.11-2.81s.46-1,.46-1l.07,0s-.08.42-.24,1.13-.4,1.71-.74,2.9c-.17.6-.34,1.24-.55,1.92s-.37,1.4-.57,2.15-.4,1.51-.6,2.3l-.33,1.18a8.42,8.42,0,0,0-.3,1.2c-.16.81-.33,1.62-.44,2.42,0,.41-.11.8-.14,1.2s0,.79,0,1.18c0,.77.06,1.52.05,2.22s.09,1.36.11,2c0,.31,0,.6,0,.88s.07.54.1.78c.08.49.09.94.18,1.27a10.24,10.24,0,0,0,.26,1.11Z"/><path class="cls-9" d="M76.37,204.91l.24.8c.15.51.35,1.24.58,2.12.1.44.22.91.34,1.41s.2,1.06.3,1.62A12.22,12.22,0,0,0,79,214.21l.82,1.61c.27.53.52,1.05.81,1.53s.52,1,.78,1.42.47.89.72,1.26.44.75.61,1.07.38.58.51.81c.28.45.43.72.43.72l-.06.06s-.23-.21-.61-.59c-.2-.18-.42-.42-.68-.69s-.51-.62-.79-1a13.85,13.85,0,0,1-.84-1.23,12.57,12.57,0,0,1-.8-1.46c-.25-.52-.49-1.07-.71-1.63a14.68,14.68,0,0,1-.59-1.73c-.19-.58-.33-1.18-.54-1.74a16.09,16.09,0,0,0-.62-1.65c-.19-.55-.42-1.06-.56-1.57s-.24-1-.33-1.44a13.38,13.38,0,0,1-.24-3.05Z"/></g><path class="cls-9" d="M85,122.89s-2.3-4.21,2.31-8.31,9.62-1.41,12.13-4.32,5.21-8.62,9.52-6.21,4.91,4.11,6.92,2.81,8-1,11.52,2.5,6.41,15.15-1.61,26.59-3.69,21.57-.92,27.35,2.23,14.72-11.7,13.54-13.94-14.2-13.94-17.35-2.37-3.55-4.47-3.16-4.86-.26-4.86-4.47-7.63.53-9.34-4.08-1.84-3.28-6.05-5.13S67.61,126.4,85,122.89Z"/><path class="cls-10" d="M125.77,136c8-11.44,5.12-23.08,1.61-26.59s-9.52-3.81-11.52-2.5-2.61-.4-6.92-2.81c-2.66-1.49-4.71.13-6.48,2.26a15.34,15.34,0,0,1,2.2,3.06c3.24,5.89,4.13,13,4.19,19.62.09,10.1-4.22,21.72.45,31.31,2.75,5.65,6.54,10.78,8.9,16.48,9-1.19,9-8.5,6.65-13.48C122.08,157.52,117.75,147.39,125.77,136Z"/><g class="cls-5"><path class="cls-9" d="M105,118.34s0,.82,0,2.26.07,3.51.24,6c.06,1.23.2,2.56.33,4s.34,2.89.54,4.41.44,3.12.76,4.7l.45,2.4.55,2.41c.32,1.61.76,3.2,1.17,4.76s.92,3.08,1.36,4.56,1,2.87,1.45,4.21c.25.66.46,1.31.71,1.93l.75,1.78c.49,1.13.89,2.19,1.31,3.1s.81,1.7,1.13,2.35l1,2.05-1.1-2c-.35-.63-.77-1.41-1.25-2.29s-.94-1.93-1.46-3.05l-.81-1.76c-.27-.62-.51-1.27-.77-1.93-.51-1.33-1.13-2.7-1.57-4.19s-1-3-1.42-4.58-.89-3.16-1.23-4.79c-.18-.81-.35-1.62-.53-2.42l-.42-2.43c-.31-1.6-.5-3.2-.72-4.74s-.32-3-.43-4.45-.18-2.76-.21-4,0-2.38,0-3.39.05-1.88.08-2.61C104.9,119.15,105,118.34,105,118.34Z"/><path class="cls-9" d="M112.23,143.84s0,.2-.13.55-.17.84-.3,1.43c-.07.3-.1.62-.17,1s-.13.69-.17,1.07-.08.75-.14,1.14a7.85,7.85,0,0,0-.1,1.19c0,.39-.06.79-.1,1.18s0,.78,0,1.15,0,.74,0,1.09a7.46,7.46,0,0,0,0,1c0,.6,0,1.11.06,1.47s0,.56,0,.56-.06-.19-.15-.54-.23-.83-.36-1.44a4.89,4.89,0,0,1-.16-1c0-.35-.07-.72-.09-1.11a9.16,9.16,0,0,1,0-1.18c0-.41,0-.82.07-1.23a9.9,9.9,0,0,1,.14-1.22c.06-.4.14-.79.21-1.17a10.42,10.42,0,0,1,.28-1.07,7.56,7.56,0,0,1,.31-1,14.13,14.13,0,0,1,.58-1.37A4.15,4.15,0,0,1,112.23,143.84Z"/><path class="cls-9" d="M95.53,130.56,96,131l1.28,1.2,1.78,1.72,2,2c.69.67,1.39,1.33,2,2s1.27,1.19,1.78,1.7,1,.89,1.31,1.17l.48.46s-.84-.48-2.07-1.28c-.59-.43-1.26-1-2-1.53s-1.4-1.26-2.11-1.92-1.37-1.38-2-2.07-1.16-1.32-1.61-1.89C96.06,131.37,95.53,130.56,95.53,130.56Z"/></g><g class="cls-5"><path class="cls-15" d="M208.71,156.47c-2.07-13.41-12.42-23.34-23.1-22.16s-17.67,13-15.59,26.42,12.41,23.34,23.1,22.16S210.79,169.89,208.71,156.47Z"/><path class="cls-15" d="M125.21,242.65c-11.67,4.67-16,19.3-9.63,32.67s21,20.45,32.63,15.78,16-19.3,9.63-32.68S136.88,238,125.21,242.65Z"/><path class="cls-15" d="M281.62,138c-9.83-5.33-22.82.64-29,13.34s-3.23,27.32,6.61,32.65,22.81-.63,29-13.33S291.46,143.31,281.62,138Z"/><path class="cls-15" d="M226.89,191.56s5.65,30-23,41.73l-3.12,6.43,3.9,19.5.29,0c3.47.46,37.35,4.22,48.26-24.81.89-2.37,1.61-4.66,2.22-6.86,7.17-26.21-4.76-40.32-4.76-40.32Z"/><path class="cls-15" d="M178.18,127.56c-6-4.58-22.57-8.63-22.57-8.63s-7.3,5.72-17.16,21.49q-1.41,2.9-2.44,5.65c-12.36,32.68,13.09,50.36,13.09,50.36l20.32-10.06a52.67,52.67,0,0,0,.39-5.52C152.06,144.17,178.18,127.56,178.18,127.56Zm-43.49,27.52c0,.15,0,.3,0,.45C134.68,155.38,134.69,155.23,134.69,155.08Zm1.07-8.12a28.5,28.5,0,0,0-.67,3.23A28.5,28.5,0,0,1,135.76,147Zm-.71,3.47c0,.24-.07.48-.1.73C135,150.91,135,150.67,135.05,150.43Zm-.13,1c0,.24-.06.47-.08.72C134.86,151.93,134.89,151.7,134.92,151.46Zm-.11,1.13-.06.66Zm-.1,1.57c0,.07,0,.14,0,.21S134.71,154.23,134.71,154.16Zm1.08,10.74,0-.11Zm-.93-5.62a.62.62,0,0,0,0-.13A.62.62,0,0,1,134.86,159.28Zm-.16-2.54v0Z"/></g><g class="cls-5"><polygon class="cls-15" points="178.71 217.97 175.69 201.41 168.46 201.8 165.83 209.29 169.51 225.6 175.82 225.07 178.71 217.97"/><path class="cls-15" d="M129.6,199.61c-8.95,11-9.14,29.52-9.14,29.52l3.46,5.28,8.18-1.22.19,0,5.48-26.74-1.54-5.19Z"/><path class="cls-15" d="M202.44,125.15a9.26,9.26,0,0,0,3.23,2l.26.12c15.32-8.41,31.91.18,31.91.18l3.34-7.24-.29-1.83s-2.88-7.81-18.56-8.5-19.89,9.13-19.89,9.13v6.09Z"/><path class="cls-15" d="M217.33,268.5l.25,5.92,4.89,4,16.21-4.32.93-4.27-2-7.82S224.63,262.49,217.33,268.5Z"/><path class="cls-15" d="M198.47,277.56c-16.19-7.36-26.13,2.76-26.13,2.76l-.09,6.62a26.74,26.74,0,0,1,1.93,4.32c20.43-7.82,33.77,10.31,33.77,10.31l4-3.23,3.5-7.26S214.66,284.92,198.47,277.56Z"/><polygon class="cls-15" points="228.96 136.29 227.38 143.21 229.43 147.84 245.53 149.17 247.18 143.28 245.84 139.12 228.96 136.29"/><path class="cls-15" d="M93.45,163.68a35.9,35.9,0,0,0-.3,5.22l2.77,4.4s10.69,1.12,12.23,10.37c0,.13,0,.25.06.38,1,8.71-1.13,15.31-9.52,21.08l.16,6.19,3.67,2.28s11.54-3,13.31-18.57a34.61,34.61,0,0,0-.75-12.13C112.46,172.17,104.69,163.6,93.45,163.68Z"/><path class="cls-15" d="M271.68,198.53c-4.75,9.69-4,23.58-4,23.58l3.25,5.44,6.94-.81,4.07-18.33-2.82-6.13Z"/><path class="cls-15" d="M309.14,184.71c-1.09-1.26-2-2.27-2.77-3.08-1.55-1.64-2.4-2.39-2.4-2.39s-9.69,5.47-9.43,19.27,13,20.12,13,20.12l2.81-1.8,1.92-1.23S297.17,201.14,309.14,184.71Z"/></g><path class="cls-11" d="M257.22,233.17s-5.38,1.54-3.8,9.72,3.56,16.05-3.74,22-5.91,6.31-4.53,9.67-.2,6.5-6.32,9.26-10.84,8.09-7.29,15.78,11.24,3.94,14,3.75,6.31,2.37,10.06,4.34,8.48,0,10.25-3.16,5.33-2.76,9.86-2.76,9.47-.4,13.61-5.72,4.14-6.7,3.35-11,1-4,5.52-8.88,2.18-13-4.33-16-7.5-5.92-8.68-9.86-2.76-4.14-6.51-4.54-4.93-2.76-7.1-6.7S259.05,230.46,257.22,233.17Z"/><path class="cls-12" d="M293.86,260.13c-6.51-3-7.5-5.92-8.68-9.86s-2.76-4.14-6.51-4.54-4.93-2.76-7.1-6.7c-1.65-3-8.07-6.41-11.83-6.65a36.1,36.1,0,0,0,3.2,4.77c2.92,3.68,6.64,7.18,8.68,11.47a10.88,10.88,0,0,1,1.24,6.77c-.49,2.31-1.63,4.27-2.51,6.44a10.63,10.63,0,0,0-.34,8c.74,1.91,1.84,3.67,2.54,5.59,1,2.65.83,5.83-2,7.27s-6.61-1.56-9.29.21a2.47,2.47,0,0,0-.19,4.26,17.16,17.16,0,0,1,1.79,1.1,5.46,5.46,0,0,1,1.74,3.79c0,.41-.07,1-.57,1.16-1.85.47-2.56,3.27-3.17,5a12.74,12.74,0,0,0-1.08,4.69,9.79,9.79,0,0,1,0,2.42,6.54,6.54,0,0,1-1.64,3.13,8.24,8.24,0,0,0,7.76-3.9c1.78-3.16,5.33-2.76,9.86-2.76s9.47-.4,13.61-5.72,4.14-6.7,3.35-11,1-4,5.52-8.88S300.37,263.09,293.86,260.13Z"/><g class="cls-5"><path class="cls-11" d="M257.22,233.17l.1.27a7.33,7.33,0,0,0,.32.76,12.34,12.34,0,0,0,.64,1.17c.14.22.31.45.47.7a7.67,7.67,0,0,0,.58.76,16.64,16.64,0,0,0,3.59,3.25,35.31,35.31,0,0,1,4.78,4.2,37.39,37.39,0,0,1,4.71,5.9,18.71,18.71,0,0,1,1.85,3.72,9.33,9.33,0,0,1,.59,4.35,6.45,6.45,0,0,1-.71,2.2,6.91,6.91,0,0,1-.66,1l-.38.44-.37.41c-.25.28-.51.55-.74.84l-.66.87c-.21.3-.38.62-.58.93s-.3.66-.46,1a6,6,0,0,0,0,4.25c.5,1.41,1.27,2.75,1.92,4.19.15.36.31.72.45,1.09l.21.58.16.55a10.39,10.39,0,0,1,.26,1.19,5.8,5.8,0,0,1,0,1.25,3.6,3.6,0,0,1-1.08,2.27,5.62,5.62,0,0,1-2.1,1.23,20.63,20.63,0,0,1-4.51.91,18.36,18.36,0,0,0-2.16.36,8.92,8.92,0,0,0-2,.69,3.89,3.89,0,0,0-1.53,1.23,2.56,2.56,0,0,0-.44,1.79,3.86,3.86,0,0,0,.21.92,3.51,3.51,0,0,0,.45.84,7.09,7.09,0,0,0,1.4,1.33,10.47,10.47,0,0,1,2.87,2.72,3.66,3.66,0,0,1,.49,1.89v.25l0,.23a2.51,2.51,0,0,1-.08.45l-.16.46a4,4,0,0,1-.22.41,8.51,8.51,0,0,1-2.44,2.36,5.7,5.7,0,0,0-1.11,1,1.1,1.1,0,0,0-.14,1.21,14.6,14.6,0,0,1,1.19,2.37,2.94,2.94,0,0,1,.08,1.21,2.54,2.54,0,0,1-.48,1,4.88,4.88,0,0,1-1.41,1.16,11.69,11.69,0,0,1-1.19.62l-1,.43,1-.47a11.8,11.8,0,0,0,1.15-.66A4.93,4.93,0,0,0,261.4,306a2.19,2.19,0,0,0,.42-.93,2.56,2.56,0,0,0-.1-1.12,13.9,13.9,0,0,0-1.24-2.31,1.4,1.4,0,0,1-.17-.76,1.73,1.73,0,0,1,.3-.77,5.71,5.71,0,0,1,1.15-1.1,8.42,8.42,0,0,0,2.29-2.28c.06-.12.13-.24.18-.36l.12-.38a1.74,1.74,0,0,0,.08-.42l0-.23v-.05h0v-.13a3.06,3.06,0,0,0-.45-1.63,10.17,10.17,0,0,0-2.78-2.52,7.35,7.35,0,0,1-1.53-1.43,3.93,3.93,0,0,1-.55-1,4.78,4.78,0,0,1-.27-1.1,3.14,3.14,0,0,1,.53-2.23,4.57,4.57,0,0,1,1.78-1.46,13.85,13.85,0,0,1,4.37-1.15,19.88,19.88,0,0,0,4.35-.89,4.81,4.81,0,0,0,1.83-1.08,2.86,2.86,0,0,0,.84-1.81,4.27,4.27,0,0,0,0-1.07,7.63,7.63,0,0,0-.23-1.07l-.17-.56-.19-.51c-.13-.36-.29-.7-.45-1-.6-1.4-1.38-2.75-1.91-4.26a6.78,6.78,0,0,1,0-4.76,12,12,0,0,1,2.59-3.84,9.21,9.21,0,0,0,1.33-1.69,5.6,5.6,0,0,0,.64-1.95,8.87,8.87,0,0,0-.51-4.05,18.65,18.65,0,0,0-1.73-3.63,35.94,35.94,0,0,0-4.55-5.89,38.48,38.48,0,0,0-4.63-4.27,17.56,17.56,0,0,1-3.54-3.39,13,13,0,0,1-1.61-2.71c-.14-.34-.23-.6-.29-.78Z"/><path class="cls-11" d="M260.71,238.73a17.22,17.22,0,0,1,.82,1.77c.23.58.51,1.28.79,2.1.13.41.28.85.43,1.31s.26,1,.41,1.48c.3,1,.49,2.17.76,3.37.09.6.19,1.22.29,1.86a17.61,17.61,0,0,1,.23,1.95c.06.67.11,1.35.17,2s0,1.38.05,2.09c.06,1.4-.05,2.83-.12,4.25a18.74,18.74,0,0,1-.23,2.13c-.1.71-.2,1.41-.29,2.1-.22,1.39-.58,2.73-.85,4s-.77,2.52-1.12,3.69-.87,2.22-1.25,3.21a25.12,25.12,0,0,1-1.2,2.66l-1.05,2-.94,1.72.8-1.78c.25-.57.57-1.25.93-2a9.88,9.88,0,0,0,.52-1.27c.16-.46.34-.93.53-1.43.34-1,.82-2,1.11-3.23.16-.59.33-1.18.5-1.79s.4-1.23.5-1.88c.25-1.3.59-2.62.79-4l.27-2.07.12-1c.05-.35.05-.7.07-1.05.09-1.41.22-2.82.17-4.2,0-.69,0-1.38,0-2.06s-.09-1.34-.14-2-.11-1.31-.19-1.94-.14-1.25-.22-1.85c-.22-1.19-.36-2.33-.62-3.36s-.46-2-.69-2.8-.46-1.55-.65-2.14-.36-1-.49-1.35A4.61,4.61,0,0,0,260.71,238.73Z"/><path class="cls-11" d="M253.77,274.93s.7-.68,1.77-1.69l1.79-1.74c.65-.64,1.35-1.31,2-2,.34-.35.68-.7,1-1.05s.63-.71.91-1.06.55-.69.81-1,.46-.66.67-1a8,8,0,0,0,.5-.84,2.86,2.86,0,0,0,.34-.68c.16-.4.27-.62.27-.62s0,.24-.12.66a4,4,0,0,1-.21.76,5.89,5.89,0,0,1-.39.94,9.25,9.25,0,0,1-.57,1.06,10.94,10.94,0,0,1-.75,1.12A20.3,20.3,0,0,1,259.9,270a29.37,29.37,0,0,1-4.08,3.56c-.59.44-1.11.77-1.47,1Z"/><path class="cls-11" d="M258.05,233.4s.75.32,2,1a47.09,47.09,0,0,1,5,3.09c1,.71,2.06,1.51,3.14,2.41a40,40,0,0,1,3.25,3c.54.54,1.08,1.11,1.6,1.71l.78.89.75.94.75.95.7,1,.7,1,.63,1c.21.35.42.7.61,1.05l.56,1.11.55,1.09.48,1.11c.33.74.62,1.48.89,2.22s.54,1.47.77,2.2.47,1.45.65,2.16.38,1.4.53,2.09.31,1.34.44,2,.26,1.27.35,1.87c.23,1.2.37,2.31.49,3.29s.2,1.85.25,2.55c.12,1.42.12,2.23.12,2.23s-.08-.81-.27-2.21c-.09-.7-.22-1.55-.39-2.52s-.38-2.07-.63-3.26c-.12-.59-.26-1.21-.42-1.84s-.31-1.29-.5-2-.37-1.36-.59-2.05-.42-1.41-.68-2.12-.49-1.45-.78-2.17-.57-1.45-.9-2.17l-.49-1.09c-.17-.35-.37-.7-.54-1.06l-.56-1.06c-.19-.35-.41-.7-.61-1l-.62-1-.67-1-.67-1-.73-1-.72-.93-.77-.88c-.5-.6-1-1.16-1.55-1.7s-1.05-1.06-1.57-1.57-1-1-1.57-1.45c-1-.92-2.05-1.74-3-2.48a56.52,56.52,0,0,0-4.83-3.32C258.77,233.78,258.05,233.4,258.05,233.4Z"/><path class="cls-11" d="M281.11,259.86s1,.82,2.35,2.2c.66.69,1.45,1.5,2.23,2.42s1.58,1.93,2.35,3c.38.52.73,1.06,1.09,1.59s.66,1.08,1,1.6.56,1.05.82,1.54.44,1,.64,1.43.32.88.45,1.25a9.37,9.37,0,0,1,.27,1l.2.86s-.13-.29-.34-.81a8.3,8.3,0,0,0-.41-.92c-.17-.35-.36-.75-.57-1.17s-.49-.87-.75-1.35-.6-.95-.91-1.46c-.65-1-1.36-2.05-2.11-3.08s-1.52-2.05-2.25-3-1.42-1.83-2-2.57Z"/></g><path class="cls-16" d="M257.21,248.75a45.17,45.17,0,0,1-.85-10.95c0-.57-.63,0-.68.32-.6,3.4-1.06,5.1-.71,8.62.41,4.08,1.47,7.79.95,11.95-.34,2.68-1.64,5.94-3.91,7.55-1.18.83-2.74,1-3.94,1.76a6.69,6.69,0,0,0-3.26,4.83c-.47,2.58,1.4,5.56,1.56,8.18.12,1.93-7.19,5.06-8.42,6.06-4.34,3.56-7.07,7.56-5.26,13.24.35,1.11,1.63-.7,1.5-1.38-1.23-6.62,3.59-10.26,8.61-13.07,1.69-.94,3.24-1.62,4.45-3.17a5.41,5.41,0,0,0,.71-4.1,23.25,23.25,0,0,0-1.1-4.44c-1.43-4,2.22-4.31,4.14-5.3,4.43-2.3,6.18-7.24,6.76-12A26,26,0,0,0,257.21,248.75Z"/><g class="cls-17"><path class="cls-11" d="M196,216.88c-2.2-4.73-4.41-9.49-6.75-14.15-2.84-5.65-3.69-12.17,1.67-16.44.29-.24.53-1.31-.1-.95-5,2.84-5.33,7.15-5.13,12.58.12,3.23,2,6.26,3.26,9.13,1.76,3.9,3.13,8.16,5.6,11.68C195.15,219.59,196.31,217.57,196,216.88Z"/><path class="cls-11" d="M197.51,221.75c-.34-.45-1,.63-.79,1,1.58,2.6.53,5.8.68,8.63.06,1.15,1.26-.22,1.3-.81C198.9,227.73,199.38,224.19,197.51,221.75Z"/></g><g class="cls-17"><path class="cls-9" d="M159.75,241.67c-7.94-8.12-12.84-18.39-9.73-29.92.21-.8-.68-.32-.85.12-4.08,10.64-.42,25.21,9.28,31.77C159.15,244.11,160.28,242.22,159.75,241.67Z"/><path class="cls-9" d="M162.85,245.28a6.86,6.86,0,0,0-1.33-1.13c-.41-.28-1.11.9-.66,1.19a13.33,13.33,0,0,1,1.32.95C162.51,246.55,163.1,245.57,162.85,245.28Z"/></g><g class="cls-17"><path class="cls-9" d="M79.7,188.06c-.1-.61-.89.34-.88.68.05,2-1.53,8.27-2.95,9.7-1.93,1.95-5.39,1.88-7.79,3.06-3.38,1.67-4.95,5.68-5.11,9.19-.26,5.74,5.41,10.34,4.49,15.92-.87,5.25-.93,9.38,3.37,13.22.67.6,1.52-1.34,1.25-1.88-1.89-3.85-3.78-6.31-2.83-10.9a14.66,14.66,0,0,0,.31-5c-.23-2-1.81-4.09-2.73-5.84-2.25-4.32-3.55-9.45,1.23-12.95,2.92-2.14,7-1.1,9.21-4.65a11.79,11.79,0,0,0,1.47-4.53C79.1,191.85,80.07,190.33,79.7,188.06Z"/><path class="cls-9" d="M78.08,243.32a24.6,24.6,0,0,1-3.77-3.93c-.38-.5-1.17.7-.88,1.13a13.65,13.65,0,0,0,3.88,4.16C77.81,245,78.53,243.7,78.08,243.32Z"/></g><g class="cls-17"><path class="cls-9" d="M262.39,128.34c-4-11.29-6.52-24.55-.32-35.48.33-.57-.07-1.18-.57-.54-3.58,4.68-5,10.36-5.09,16.18A56.76,56.76,0,0,0,257.75,120c.66,3.43,1.26,7,3.06,10.1C261.33,130.94,262.62,129,262.39,128.34Z"/><path class="cls-9" d="M263.59,132.91c-.15-.26-.34-.49-.49-.75s-.36-.69-.54-1-.62.07-.74.22a1,1,0,0,0-.21,1c.3.62.53,1.45,1.16,1.8S263.81,133.29,263.59,132.91Z"/></g><polygon class="cls-18" points="168.1 199.06 165.47 206.55 169.15 222.86 171.54 216.08 168.1 199.06"/><polygon class="cls-19" points="169.15 222.86 175.46 222.33 178.35 215.23 171.54 216.08 169.15 222.86"/><polygon class="cls-20" points="168.1 199.06 171.54 216.08 178.35 215.23 175.33 198.67 168.1 199.06"/><path class="cls-18" d="M131.74,230.45l.19,0,5.48-26.74-1.54-5.19s-7.4,12.4-7.5,27.69C130.48,228.85,131.37,230,131.74,230.45Z"/><path class="cls-20" d="M135.87,198.5l-6.63-1.64c-8.94,11.06-9.14,29.52-9.14,29.52l8.27-.19C128.47,210.9,135.87,198.5,135.87,198.5Z"/><path class="cls-19" d="M120.1,226.38l3.47,5.29,8.17-1.22c-.37-.48-1.26-1.6-3.37-4.26Z"/><path class="cls-20" d="M236.86,121.36c3.09-5.13,3.68-5.68,3.68-5.68s-2.89-7.8-18.57-8.49-19.89,9.14-19.89,9.14v.31l3.23,4.19S221.35,111.43,236.86,121.36Z"/><path class="cls-19" d="M240.54,115.68s-.59.55-3.68,5.68l.62,3.39,3.34-7.23Z"/><path class="cls-19" d="M202.08,116.64v5.77a9.27,9.27,0,0,0,3.22,2v-3.63Z"/><path class="cls-18" d="M237.48,124.75l-.62-3.39c-15.51-9.93-31.55-.53-31.55-.53v3.63l.26.12C220.89,116.16,237.48,124.75,237.48,124.75Z"/><path class="cls-20" d="M217,265.76l5.66,5.91a67.14,67.14,0,0,1,16.62-4.62l-2-7.83S224.28,259.74,217,265.76Z"/><polygon class="cls-19" points="216.97 265.76 217.23 271.68 222.12 275.64 222.63 271.68 216.97 265.76"/><path class="cls-18" d="M222.63,271.67l-.51,4,16.2-4.32.93-4.27A67.14,67.14,0,0,0,222.63,271.67Z"/><path class="cls-20" d="M198.11,274.82c-16.19-7.37-26.12,2.75-26.12,2.75l2.3,6s8.46-5.89,20.42-.28,13.8,12.06,13.8,12.06l6.53-7S214.3,282.17,198.11,274.82Z"/><path class="cls-18" d="M194.71,283.27c-12-5.61-20.42.28-20.42.28l-.46,5c20.42-7.82,33.76,10.3,33.76,10.3l.92-3.49S206.67,288.89,194.71,283.27Z"/><path class="cls-19" d="M172,277.57l-.1,6.63a26.92,26.92,0,0,1,1.94,4.32l.46-5Z"/><polygon class="cls-19" points="208.51 295.33 207.59 298.82 211.54 295.61 215.04 288.34 208.51 295.33"/><polygon class="cls-20" points="245.49 136.37 228.6 133.55 227.03 140.46 244.39 142.66 245.49 136.37"/><polygon class="cls-18" points="227.03 140.46 229.07 145.1 245.18 146.43 244.39 142.66 227.03 140.46"/><polygon class="cls-19" points="245.49 136.37 244.39 142.66 245.18 146.43 246.82 140.54 245.49 136.37"/><path class="cls-18" d="M92.8,166.16l2.76,4.4s10.69,1.12,12.23,10.37l.1-.08C106.6,165.67,92.8,166.16,92.8,166.16Z"/><polygon class="cls-19" points="98.33 202.39 98.5 208.58 102.16 210.86 101.97 206.68 98.33 202.39"/><path class="cls-20" d="M93.09,160.93a34.8,34.8,0,0,0-.29,5.23s13.8-.49,15.09,14.69l-.1.08c0,.12,0,.25.07.38,1,8.71-1.14,15.3-9.53,21.08l3.64,4.29s15.13-11.37,12.75-26.52C112.1,169.43,104.33,160.86,93.09,160.93Z"/><path class="cls-18" d="M102,206.68l.19,4.18s11.54-3,13.32-18.57a34.85,34.85,0,0,0-.76-12.13C117.1,195.31,102,206.68,102,206.68Z"/><polygon class="cls-19" points="267.32 219.37 270.57 224.81 277.52 223.99 275.71 219.64 267.32 219.37"/><path class="cls-18" d="M277.52,224l4.06-18.32-2.81-6.13c-2.34,6.46-3.06,20.1-3.06,20.1Z"/><path class="cls-20" d="M267.32,219.37l8.39.27s.72-13.64,3.06-20.1l-7.44-3.75C266.57,205.48,267.32,219.37,267.32,219.37Z"/><path class="cls-18" d="M308.78,182c-1.08-1.26-2-2.28-2.77-3.08-2.78,4.2-11,19.55,4,35.2l1.92-1.22S296.81,198.4,308.78,182Z"/><path class="cls-20" d="M306,178.89c-1.55-1.64-2.4-2.39-2.4-2.39s-9.69,5.47-9.42,19.27,13,20.12,13,20.12l2.81-1.8C295,198.44,303.23,183.09,306,178.89Z"/><path class="cls-21" d="M208.32,153.32c2.07,13.41-4.91,25.24-15.6,26.42s-21-8.75-23.1-22.17,4.91-25.24,15.59-26.41S206.25,139.9,208.32,153.32Z"/><path class="cls-22" d="M205.88,153.5c1.91,12.37-4.12,23.23-13.46,24.25S174,169.59,172,157.22,176.15,134,185.49,133,204,141.13,205.88,153.5Z"/><path class="cls-23" d="M189.15,146.59s1-9.48,2.64-9.65,10.08,8.22,10.44,19.64-4.89,17.4-6.92,18-4.09-7.66-4.09-7.66-.37,8-2.24,8.06-15.35-5.82-14.53-23.84C175.12,140.78,187.34,125.19,189.15,146.59Z"/><path class="cls-24" d="M186.52,165.55s-1.16,1.87-2.05,1.54S187.4,163.89,186.52,165.55Z"/><path class="cls-24" d="M196.57,163.64s1.61.89,1.34,1.52S195.16,163,196.57,163.64Z"/><path class="cls-24" d="M195.07,158.46s2.05.42,2,1.18S193.29,158.2,195.07,158.46Z"/><path class="cls-24" d="M195.17,152.85s2.05.42,2,1.19S193.39,152.6,195.17,152.85Z"/><path class="cls-24" d="M194.7,147.11s1-1.66,1.8-1.37S193.92,148.57,194.7,147.11Z"/><path class="cls-24" d="M183.45,156.22s-2.27-.45-2.23-1.3S185.4,156.49,183.45,156.22Z"/><path class="cls-24" d="M183.27,151.31s-2.82-1-2.57-2.08S185.73,152,183.27,151.31Z"/><path class="cls-24" d="M184.4,146.94s-3.31-2.23-3-3.42S187.29,148.7,184.4,146.94Z"/><path class="cls-24" d="M185,161.5s-2,1-2.64.34S186.68,160.51,185,161.5Z"/><path class="cls-25" d="M172,152.23c.64-6.4,3-12.92,8.4-17.23.47-.37-.12-.51-.46-.27-5.73,3.93-9.07,11.5-9.22,18C170.66,153.25,171.9,152.68,172,152.23Z"/><path class="cls-25" d="M172.2,155.8a5.53,5.53,0,0,1-.23-1.2c-.1-.41-1.05,0-.95.36a6.17,6.17,0,0,0,.34,1.31C171.52,156.57,172.36,156.12,172.2,155.8Z"/><path class="cls-21" d="M157.44,255.27c6.35,13.37,2,28-9.63,32.67s-26.28-2.39-32.63-15.77-2-28,9.63-32.68S151.09,241.89,157.44,255.27Z"/><path class="cls-22" d="M154.75,256.24c5.85,12.33,2.33,25.64-7.88,29.72s-23.22-2.6-29.08-14.94-2.32-25.64,7.88-29.73S148.9,243.9,154.75,256.24Z"/><path class="cls-23" d="M133.87,254.38s-1.75-10.23.07-10.95,13.8,5.37,17.63,17.21-.28,19.79-2.39,21.09-6.89-6.7-6.89-6.7,2,8.51-.11,9.15-19-1.15-23.48-20.28C116.35,252.82,125.42,232.57,133.87,254.38Z"/><path class="cls-24" d="M136.58,275.08s-.74,2.33-1.84,2.27S137.07,273.06,136.58,275.08Z"/><path class="cls-24" d="M147.33,269.85s2.06.42,1.94,1.16S145.53,269.61,147.33,269.85Z"/><path class="cls-24" d="M144.07,264.91s2.44-.23,2.62.59S142,265.21,144.07,264.91Z"/><path class="cls-24" d="M142.51,259s2.43-.22,2.62.6S140.44,259.31,142.51,259Z"/><path class="cls-24" d="M140.26,253.14s.66-2.06,1.62-2S139.83,254.93,140.26,253.14Z"/><path class="cls-24" d="M130.33,266.3s-2.68.27-2.89-.64S132.61,266,130.33,266.3Z"/><path class="cls-24" d="M128.66,261.22s-3.46-.15-3.51-1.36S131.65,261.18,128.66,261.22Z"/><path class="cls-24" d="M128.62,256.29s-4.39-1.28-4.41-2.61S132.4,257.19,128.62,256.29Z"/><path class="cls-24" d="M133.64,271.33s-2,1.75-2.87,1.21S135.25,269.76,133.64,271.33Z"/><path class="cls-25" d="M116.2,265.83c-1.19-6.92-.52-14.5,4.3-20.75.41-.54-.29-.49-.6-.13-5.27,6-6.77,15-5,21.8C115.05,267.31,116.28,266.31,116.2,265.83Z"/><path class="cls-25" d="M117.56,269.48a6.09,6.09,0,0,1-.63-1.18c-.23-.4-1.17.36-1,.68a6.59,6.59,0,0,0,.78,1.26C117,270.51,117.83,269.77,117.56,269.48Z"/><path class="cls-21" d="M287.83,167.48c-6.19,12.7-19.18,18.66-29,13.33s-12.79-20-6.6-32.66,19.18-18.67,29-13.33S294,154.78,287.83,167.48Z"/><path class="cls-22" d="M285.63,166.18c-5.7,11.71-17.3,17.42-25.9,12.75s-10.94-17.94-5.24-29.65,17.31-17.42,25.9-12.75S291.34,154.47,285.63,166.18Z"/><path class="cls-23" d="M275.44,150.35s6.45-7.53,8-6.68,3.74,13-2.72,23-14.51,12-16.61,11.3,1.05-9,1.05-9-5.08,6.63-6.69,5.55-9.67-14.08,1.71-29C266.89,137.06,286.58,131,275.44,150.35Z"/><path class="cls-24" d="M261.94,165s-2.11.91-2.67.11S263.67,164.1,261.94,165Z"/><path class="cls-24" d="M271.66,169.34s.85,1.7.24,2.08S270.85,167.92,271.66,169.34Z"/><path class="cls-24" d="M273.45,164s1.51,1.58,1,2.21S272.09,162.74,273.45,164Z"/><path class="cls-24" d="M276.86,159.27s1.51,1.58,1,2.21S275.5,158,276.86,159.27Z"/><path class="cls-24" d="M279.87,154.08s1.86-.8,2.35-.09S278.34,154.87,279.87,154.08Z"/><path class="cls-24" d="M264.84,155.2s-1.67-1.73-1.13-2.43S266.36,156.58,264.84,155.2Z"/><path class="cls-24" d="M267.61,150.9s-1.81-2.54-1-3.31S269.28,153,267.61,150.9Z"/><path class="cls-24" d="M271.16,147.83s-1.5-3.87-.55-4.71S272.59,151.05,271.16,147.83Z"/><path class="cls-24" d="M263,160.62s-2.37-.33-2.46-1.28S265.06,160.78,263,160.62Z"/><path class="cls-25" d="M257.38,145c4.35-5.1,10.22-9.28,17.41-9.75.62,0,.2-.5-.24-.5-7.22-.05-14.58,4.44-18.55,9.9C255.67,145.07,257.08,145.32,257.38,145Z"/><path class="cls-25" d="M255.48,148.16A6.69,6.69,0,0,1,256,147c.16-.41-.91-.6-1-.26a6.36,6.36,0,0,0-.49,1.32C254.44,148.42,255.42,148.54,255.48,148.16Z"/><path class="cls-26" d="M250.28,184.11l-23.79,4.3s5.66,30-23,41.72l5.27,19.11S245.49,253,255,224.43C262.2,198.22,250.28,184.11,250.28,184.11Z"/><path class="cls-27" d="M203.48,230.13l-3.12,6.43,3.9,19.5.3,0,4.19-6.86Z"/><path class="cls-28" d="M208.75,249.24l-4.19,6.86c3.47.47,37.34,4.23,48.25-24.8.9-2.38,1.62-4.66,2.22-6.87C245.49,253,208.75,249.24,208.75,249.24Z"/><g class="cls-17"><path class="cls-26" d="M254.54,199.4c-.48-4.47-1.63-9.25-5.12-12.34-.66-.59-1.76,1.42-1.35,2,5,7.3,5.09,18,3.58,26.44-1.54,8.63-6.65,15-12.11,21.5-.79.95-.75,3.22.84,2,7.32-5.83,12-15.26,13.9-24.28A50.31,50.31,0,0,0,254.54,199.4Z"/><path class="cls-26" d="M236.1,240.78c-1.08.18-1.83,1.13-2.91,1.3-.58.1-1.42,1.81-.56,1.89a4.93,4.93,0,0,0,3.45-1.54C236.44,242.12,237.08,240.61,236.1,240.78Z"/></g><path class="cls-26" d="M177.78,124.41c-6-4.58-22.56-8.64-22.56-8.64s-7.3,5.72-17.16,21.5c-.94,1.93-1.75,3.8-2.44,5.64-2.24,7.44-3.76,23.73,13.68,45.43l20.12-10.64C151.67,141,177.78,124.41,177.78,124.41Z"/><path class="cls-28" d="M135.62,142.91c-12.36,32.68,13.09,50.37,13.09,50.37l.58-4.95C131.86,166.64,133.38,150.35,135.62,142.91Z"/><path class="cls-27" d="M169.42,177.7,149.3,188.34h0l-.58,4.95L169,183.21A49.24,49.24,0,0,0,169.42,177.7Z"/><g class="cls-17"><path class="cls-26" d="M154.44,119a51.39,51.39,0,0,1-4.95,5.59,43.1,43.1,0,0,0-4.91,7.17,51,51,0,0,0-6,14.38c-2.06,9.38-1.18,21.94,4.78,29.8,1.08,1.43,3-1.93,2.42-3.1a43.91,43.91,0,0,1-4.27-27.62c.78-4.64,3.51-9.47,5.76-13.55,2.31-4.23,6-7.51,8.11-11.79C155.84,118.91,155.2,117.81,154.44,119Z"/><path class="cls-26" d="M148.79,178.86a9.17,9.17,0,0,0-1.68-1.84c-.37-.31-1,.29-1.16.53-.31.4-.77,1.29-.38,1.78a10.57,10.57,0,0,1,.64,1,3.11,3.11,0,0,0,.89,1.08c.42.3,1.05-.3,1.27-.59C148.74,180.35,149.19,179.43,148.79,178.86Z"/></g><path class="cls-29" d="M261.86,134.77c-.3,0-.61.75-.29.75S262.18,134.77,261.86,134.77Z"/><path class="cls-29" d="M121.82,123.16a.64.64,0,0,0-.62-.23,1.08,1.08,0,0,0-.24.12.56.56,0,0,0-.25.16c-.28.3-.56,1-.15,1.3h0c.08.16.23.34.39.33a.93.93,0,0,0,.79-.66v0a2,2,0,0,0,.1-.21A.91.91,0,0,0,121.82,123.16Z"/><path class="cls-29" d="M168.75,103.05a.61.61,0,0,0-.61-.24,1.19,1.19,0,0,0-.25.13.7.7,0,0,0-.25.16c-.28.3-.56,1-.15,1.3h0c.08.16.22.34.39.32a.93.93,0,0,0,.79-.66v0a1.28,1.28,0,0,0,.11-.2A.91.91,0,0,0,168.75,103.05Z"/><path class="cls-29" d="M188.17,117.3a.61.61,0,0,0-.61-.24,1.19,1.19,0,0,0-.25.13.7.7,0,0,0-.25.16c-.28.3-.56,1-.15,1.3h0c.08.16.22.34.39.33a1,1,0,0,0,.79-.67v0a.78.78,0,0,0,.11-.2A.91.91,0,0,0,188.17,117.3Z"/><path class="cls-29" d="M194.79,102.06a.63.63,0,0,0-.62-.24.92.92,0,0,0-.24.13.66.66,0,0,0-.26.16c-.27.3-.56,1-.14,1.3h0c.08.16.23.34.39.33a.93.93,0,0,0,.79-.66s0,0,0,0a2,2,0,0,0,.1-.21A.91.91,0,0,0,194.79,102.06Z"/><path class="cls-29" d="M169.91,107.39c-.48,0-1,1.2-.46,1.2S170.43,107.39,169.91,107.39Z"/><path class="cls-29" d="M150.1,111.73c-.34,0-.69.84-.32.84S150.46,111.73,150.1,111.73Z"/><path class="cls-29" d="M155.11,148.72a.36.36,0,0,0-.44-.12.59.59,0,0,0-.38.18l-.06,0c-.46.38-.89,1.12-.55,1.7s1.16.36,1.5-.13S155.66,149.06,155.11,148.72Z"/><path class="cls-29" d="M216.79,137.52v-.05a.05.05,0,0,0,0,0s0-.06,0-.09a.45.45,0,0,0-.11-.15.89.89,0,0,0-.22-.16c-.38-.17-.71.44-.77.72a1.17,1.17,0,0,0,.15,1c.38.55,1-.63,1-.93A2.46,2.46,0,0,0,216.79,137.52Z"/><path class="cls-29" d="M224.61,112.89l-.13-.12a.4.4,0,0,0-.17-.27.74.74,0,0,0-.94.27c-.26.33-.48.9-.14,1.25a1,1,0,0,0,.88.18C224.52,114.06,225,113.25,224.61,112.89Z"/><path class="cls-29" d="M262.53,116a.36.36,0,0,0-.27,0h0c-.34-.09-.64.54-.69.77a3.07,3.07,0,0,0-.07.53c0,.1,0,.3.15.34a.88.88,0,0,0,1.08-.51C262.91,116.8,263,116.22,262.53,116Z"/><path class="cls-29" d="M267.06,104.53c-.51-.49-1.14.2-1.31.69s-.08,1.21.54,1.11a.88.88,0,0,0,.46-.3C267.21,105.73,267.52,105,267.06,104.53Z"/><path class="cls-29" d="M289.08,122a.85.85,0,0,0-.1-.19v0c0-.25-.3-.24-.47-.14l-.13.11c-.45.29-.83,1.14-.25,1.47.35.19.7-.31.84-.69A.93.93,0,0,0,289.08,122Z"/><path class="cls-29" d="M283.66,129.77c-.26.16-.73.94-.35,1.16,0,0,0,0,0,0,.2.33.63-.27.69-.43v0C284.18,130.21,284.19,129.44,283.66,129.77Z"/><path class="cls-29" d="M314.7,167.54v0a.72.72,0,0,0-.31-.65.56.56,0,0,0-.5-.18.89.89,0,0,0-.35.11l-.15.08,0,0-.16.13-.09.09,0,0a1.75,1.75,0,0,0-.43,1.24.88.88,0,0,0,.46.76,1.11,1.11,0,0,0,.48.28c.39.11.72-.41.88-.67a1.78,1.78,0,0,0,.25-1.06A1,1,0,0,0,314.7,167.54Z"/><path class="cls-29" d="M286.44,180.62a.68.68,0,0,0-.68-.12l-.31,0c-.31,0-.55.39-.65.61-.26.59,0,.93.45,1h0a1.07,1.07,0,0,0,1.06-.45C286.5,181.37,286.76,180.87,286.44,180.62Z"/><path class="cls-29" d="M315.09,189.07c-.54,0-1.11,1.36-.52,1.36S315.69,189.07,315.09,189.07Z"/><path class="cls-29" d="M307.22,193.28c-.27-.15-.54.2-.67.38h0c-.18.21-.33.53-.16.66.14.51.73,0,.89-.38C307.36,193.75,307.43,193.4,307.22,193.28Z"/><path class="cls-29" d="M228.73,173.89a1.23,1.23,0,0,0,.18-1.35.28.28,0,0,0-.15-.23l0,0a.94.94,0,0,0-.49-.32h-.18a.79.79,0,0,0-.57.13c-.54.38-1,1.32-.5,1.89l.06,0a.78.78,0,0,0,.9.52,1,1,0,0,0,.47-.28A1.76,1.76,0,0,0,228.73,173.89Z"/><path class="cls-29" d="M215.14,187.4l0,0a2.34,2.34,0,0,0-.09-.24.39.39,0,0,0-.58-.19l-.19,0c-.65,0-1.11.74-1.13,1.32a1.13,1.13,0,0,0,.1.52.78.78,0,0,0,.17.48.74.74,0,0,0,.89.14A1.38,1.38,0,0,0,215.14,187.4Z"/><path class="cls-29" d="M203.5,189.3a1.31,1.31,0,0,0-2.28-.28,1.79,1.79,0,0,0-.38,1.44.87.87,0,0,0,.24.44.46.46,0,0,0,.32.27,1.17,1.17,0,0,0,.77.34A1.72,1.72,0,0,0,203.5,189.3Z"/><path class="cls-29" d="M242.06,203.17c-.9-.12-1.53,1-1.59,1.74a1.31,1.31,0,0,0,1.19,1.33,1.36,1.36,0,0,0,1-.59l.13-.19c-.08.14-.05.1.08-.12a1.57,1.57,0,0,0,.22-.94C243.26,203.72,242.73,203.25,242.06,203.17Z"/><path class="cls-29" d="M243.26,218.64a.49.49,0,0,0-.41,0l-.18-.07c-.41-.09-.7.65-.72.94a1.62,1.62,0,0,0,0,.22.77.77,0,0,0,0,.15.58.58,0,0,0,.08.32c.1.42.32.79.8.69a1.39,1.39,0,0,0,.9-1.28A1.17,1.17,0,0,0,243.26,218.64Z"/><path class="cls-29" d="M216.16,236.1a.82.82,0,0,0-.1-.4.43.43,0,0,0-.29-.38c0-.12-.12-.22-.26-.16s-.4,0-.61.12a1.22,1.22,0,0,0-.48.75,1,1,0,0,0,.35,1l.13.07a.52.52,0,0,0,.23.13.34.34,0,0,0,.2,0,.7.7,0,0,0,.38-.18A1.44,1.44,0,0,0,216.16,236.1Z"/><path class="cls-29" d="M310.56,223.35a2.07,2.07,0,0,0-.17-.24,1.15,1.15,0,0,0-.14-.55,1.46,1.46,0,0,0-1.15-.65,2.16,2.16,0,0,0-2.25,2.38.84.84,0,0,0,.08.19,1.28,1.28,0,0,0,.8,1,1.92,1.92,0,0,0,2.26-1C310.35,224.44,310.76,223.67,310.56,223.35Z"/><path class="cls-29" d="M290.35,232.27v0c0-.16,0-.28-.22-.32a.53.53,0,0,0-.28,0,.4.4,0,0,0-.16.08,1.35,1.35,0,0,0-.54.68c-.05.13-.15.54.07.61a1.64,1.64,0,0,0,.44,0A.94.94,0,0,0,290.35,232.27Z"/><path class="cls-29" d="M115.81,159.78s0,0,0,0,0-.12,0-.18v0a.81.81,0,0,0-.48-.73.42.42,0,0,0-.31,0,1.16,1.16,0,0,0-.87.47,1.56,1.56,0,0,0-.37,1.41.77.77,0,0,0,.72.54.63.63,0,0,0,.52-.13,1.23,1.23,0,0,0,.31-.19A1.47,1.47,0,0,0,115.81,159.78Z"/><path class="cls-29" d="M160,178.11a.73.73,0,0,0-.83-.3l-.09,0a.76.76,0,0,0-.7.49,1.09,1.09,0,0,0,0,1.29.75.75,0,0,0,1.13,0C159.84,179.24,160.24,178.61,160,178.11Z"/><path class="cls-29" d="M96.18,196.3a1,1,0,0,0-1,.25l-.18,0a1.55,1.55,0,0,0-1,1,1.57,1.57,0,0,0,.22,1.6,1.23,1.23,0,0,0,.81.43.93.93,0,0,0,1.08-.35,3,3,0,0,0,.46-.55C97,198.07,97.11,196.59,96.18,196.3Z"/><path class="cls-29" d="M95.68,214.63a.65.65,0,0,0-.42-.18.55.55,0,0,0-.66.13,1.94,1.94,0,0,0-.53,1.09c0,.29-.1.7.2.88a.81.81,0,0,0,.87-.07C95.7,216.19,96.27,215.13,95.68,214.63Z"/><path class="cls-29" d="M108.24,227.23a1,1,0,0,0-1.56-.08,1.49,1.49,0,0,0-.47,1.66.48.48,0,0,0,0,.12.84.84,0,0,0,.48.73,1.23,1.23,0,0,0,1.62-.6A1.59,1.59,0,0,0,108.24,227.23Z"/><path class="cls-29" d="M95.75,243.19a1.48,1.48,0,0,0-1.3.69,2,2,0,0,0-.24.4,2.65,2.65,0,0,0-.4.66,1.66,1.66,0,0,0,1.11,2.29c1.11.26,1.94-.94,2.16-1.86A2,2,0,0,0,95.75,243.19Z"/><path class="cls-29" d="M109.66,270.55h0a1.55,1.55,0,0,0-2,1.62,1.05,1.05,0,0,0,.88.85,1.44,1.44,0,0,0,1.49-.78C110.35,271.68,110.36,270.79,109.66,270.55Z"/><path class="cls-29" d="M107.41,281.39c-.23-.17-.53.11-.7.45a.74.74,0,0,0-.36.26c-.29.39-.53,1.22.07,1.46a1.14,1.14,0,0,0,1.29-.61A1.08,1.08,0,0,0,107.41,281.39Z"/><path class="cls-29" d="M110.89,291.62c-.31,0-.64.78-.3.78S111.23,291.62,110.89,291.62Z"/><path class="cls-29" d="M165.21,294.81a.89.89,0,0,0-.52-.43v0a.86.86,0,0,0-1.11-.16h-.29a1.7,1.7,0,0,0-1.14,2.58,1.66,1.66,0,0,0,2.33.51A2,2,0,0,0,165.21,294.81Z"/><path class="cls-29" d="M179.59,296.69a.29.29,0,0,0-.24-.32l-.24-.05c-.45-.06-.76.66-.78,1v0a.66.66,0,0,0,0,.27,1.07,1.07,0,0,0,.06.29c.05.43.24.84.74.88s.83-.69.83-1.07A1.2,1.2,0,0,0,179.59,296.69Z"/><path class="cls-29" d="M242.49,295.36a1.3,1.3,0,0,0-1.69-.61,1.42,1.42,0,0,0-.36.33,2,2,0,0,0-.52.59,1.74,1.74,0,0,0-.13,1.41c.16.49.47.6.8.52a.7.7,0,0,0,1,0,2.53,2.53,0,0,0,.62-.77.7.7,0,0,0,.18-.17A1.13,1.13,0,0,0,242.49,295.36Z"/><path class="cls-29" d="M250.77,284.92a.6.6,0,0,0-.65-.08l-.29,0c-.43-.06-.73.63-.74.95,0,.08,0,.16,0,.24a1.71,1.71,0,0,0-.11.59.9.9,0,0,0,.83.94.48.48,0,0,0,.23-.07c.34.12.73-.38.82-.83a2.05,2.05,0,0,0,.28-.45A1,1,0,0,0,250.77,284.92Z"/><path class="cls-29" d="M279.22,280.13a1.44,1.44,0,0,0-1.08.24,2.43,2.43,0,0,0-.48.43l-.06,0c.08-.07.08-.07,0,0a1.5,1.5,0,0,0-.36.35,2.84,2.84,0,0,0-.4.82,1.32,1.32,0,0,0-.13.91.64.64,0,0,0,.13.26,1.63,1.63,0,0,0,1.33,1.31c1.06.12,1.77-1.18,2-2S280.1,280.36,279.22,280.13Z"/><path class="cls-29" d="M141.33,231.7a2.39,2.39,0,0,0-.22-.12c.22-.24.37-.65.13-.76-.69-.33-1.15.39-1.31,1s.22,1.43.92,1.18C141.19,232.84,141.8,232,141.33,231.7Z"/><path class="cls-29" d="M156.5,219.79c-.56,0-1.15,1.4-.54,1.4S157.11,219.79,156.5,219.79Z"/></g></g></g></svg>