<svg xmlns="http://www.w3.org/2000/svg" xmlns:xlink="http://www.w3.org/1999/xlink" viewBox="0 0 2818.58 2852.95"><defs><style>.cls-1{fill:#d8dee8;}.cls-2{fill:url(#linear-gradient);}.cls-3{isolation:isolate;}.cls-4{fill:#f4f7fa;}.cls-5{clip-path:url(#clip-path);}.cls-19,.cls-6{opacity:0.8;}.cls-45,.cls-6{mix-blend-mode:soft-light;}.cls-45,.cls-7{fill:#fff;}.cls-8{clip-path:url(#clip-path-2);}.cls-9{fill:#26264f;}.cls-10{fill:url(#linear-gradient-3);}.cls-11{fill:url(#linear-gradient-4);}.cls-12,.cls-23,.cls-37,.cls-51,.cls-56,.cls-60,.cls-77{opacity:0.3;}.cls-12,.cls-20,.cls-23,.cls-37,.cls-47,.cls-51,.cls-56,.cls-60,.cls-77{mix-blend-mode:multiply;}.cls-12{fill:url(#linear-gradient-5);}.cls-13{fill:#de8bdf;}.cls-14{fill:url(#linear-gradient-6);}.cls-15{fill:url(#linear-gradient-7);}.cls-16{fill:url(#linear-gradient-8);}.cls-17{fill:url(#linear-gradient-9);}.cls-18{fill:url(#linear-gradient-10);}.cls-20{opacity:0.35;}.cls-21{fill:url(#linear-gradient-11);}.cls-22{fill:url(#linear-gradient-12);}.cls-24{fill:url(#linear-gradient-13);}.cls-25{fill:url(#linear-gradient-14);}.cls-26{fill:url(#linear-gradient-15);}.cls-27{fill:url(#linear-gradient-16);}.cls-28{fill:url(#linear-gradient-17);}.cls-29{fill:url(#linear-gradient-18);}.cls-30{fill:url(#linear-gradient-19);}.cls-31{fill:url(#linear-gradient-20);}.cls-32{fill:url(#linear-gradient-21);}.cls-33{fill:url(#linear-gradient-22);}.cls-34{fill:url(#linear-gradient-23);}.cls-35{fill:url(#linear-gradient-24);}.cls-36{fill:url(#linear-gradient-25);}.cls-37{fill:url(#linear-gradient-26);}.cls-38{fill:url(#linear-gradient-27);}.cls-39{fill:url(#linear-gradient-28);}.cls-40{fill:url(#linear-gradient-29);}.cls-41{fill:url(#linear-gradient-30);}.cls-42{fill:url(#linear-gradient-31);}.cls-43{fill:url(#linear-gradient-32);}.cls-44{fill:url(#linear-gradient-33);}.cls-46{fill:url(#linear-gradient-34);}.cls-47{opacity:0.6;fill:url(#linear-gradient-35);}.cls-48{fill:url(#linear-gradient-36);}.cls-49{fill:url(#linear-gradient-37);}.cls-50{fill:url(#linear-gradient-38);}.cls-51{fill:url(#linear-gradient-39);}.cls-52{fill:url(#linear-gradient-40);}.cls-53{fill:url(#linear-gradient-41);}.cls-54{fill:url(#linear-gradient-42);}.cls-55{fill:url(#linear-gradient-43);}.cls-56{fill:url(#linear-gradient-44);}.cls-57{fill:url(#linear-gradient-45);}.cls-58{fill:url(#linear-gradient-46);}.cls-59{fill:url(#linear-gradient-47);}.cls-60{fill:url(#linear-gradient-48);}.cls-61{fill:url(#linear-gradient-49);}.cls-62{fill:url(#linear-gradient-50);}.cls-63{fill:url(#linear-gradient-51);}.cls-64{fill:url(#linear-gradient-52);}.cls-65{fill:url(#linear-gradient-53);}.cls-66{fill:url(#linear-gradient-54);}.cls-67{fill:url(#linear-gradient-55);}.cls-68{fill:url(#linear-gradient-56);}.cls-69{fill:url(#linear-gradient-57);}.cls-70{fill:url(#linear-gradient-58);}.cls-71{fill:url(#linear-gradient-59);}.cls-72{fill:url(#linear-gradient-60);}.cls-73{fill:url(#linear-gradient-61);}.cls-74{fill:url(#linear-gradient-62);}.cls-75{fill:url(#linear-gradient-63);}.cls-76{fill:url(#linear-gradient-64);}.cls-77{fill:url(#linear-gradient-65);}.cls-78{fill:url(#linear-gradient-66);}.cls-79{fill:url(#linear-gradient-67);}.cls-80{fill:url(#linear-gradient-68);}.cls-81{fill:url(#linear-gradient-69);}</style><linearGradient id="linear-gradient" x1="1827.03" y1="-120.04" x2="1516.83" y2="4394.97" gradientUnits="userSpaceOnUse"><stop offset="0" stop-color="#ffc444"/><stop offset="1" stop-color="#f36f56"/></linearGradient><clipPath id="clip-path" transform="translate(0 52.95)"><path class="cls-1" d="M2622.65,693.57c-25.43-43-74.47-79-119.69-99-320.62-141.61-615.91,528.8-620.75,700.62s-55.66,210.53-343.67,197.77-219.39,186.74-220.36,288.64,34.07,200.85-187.17,222.89-175.64,101.38-175.64,101.38,220.22,481.57,242,360.57S1316,2185.74,1633,2285c136.55,42.73,365.62,52.64,463-75,22.69-29.72,48.5-78.3,52.9-115.92,6.11-52.18-11.85-101.5-13.11-153.13-2.92-120.34,127.48-160.8,211.9-210.17,44.07-25.78,88.47-52.5,127.19-86,80.37-69.63,95.67-169.79,71.23-269.41-11.71-47.76-32.56-101.47-27.18-151.48,5.78-53.73,40.51-117.49,61.64-167.3,16.57-39.06,34.64-77.41,46.78-118.19C2649.9,862.48,2665.16,765.39,2622.65,693.57Z"/></clipPath><clipPath id="clip-path-2" transform="translate(0 52.95)"><path class="cls-2" d="M2050.4,80.07c-40.94-28.56-100.51-41.06-150-40.51C1550,43.5,1559,776,1625.73,934.39s36.57,214.68-230.86,322.38-122.31,260.86-81,354,114.22,168.7-78,280.42-117.85,165-117.85,165,399.93,347.07,369.63,227.92-8.38-304.62,321.26-345.65c142-17.67,354.58-103.56,390.36-260.08,8.33-36.45,11.7-91.35.12-127.42-16.06-50-52.84-87.47-75.37-133.94-52.51-108.32,49.4-199.17,105.78-279.08,29.44-41.71,58.78-84.43,80.12-131,44.31-96.67,16.74-194.18-46.77-274.72-30.46-38.62-71.68-78.86-87.5-126.61-17-51.29-11.81-123.71-13.21-177.8-1.1-42.42-.54-84.81-6.39-126.95C2145.18,222.51,2118.84,127.83,2050.4,80.07Z"/></clipPath><linearGradient id="linear-gradient-3" x1="5090.92" y1="1432.49" x2="7354.82" y2="1345.94" gradientTransform="matrix(1, 0, 0.12, 1, -4521.72, -2.49)" gradientUnits="userSpaceOnUse"><stop offset="0" stop-color="#444b8c"/><stop offset="1" stop-color="#26264f"/></linearGradient><linearGradient id="linear-gradient-4" x1="6088.08" y1="569.88" x2="3909.86" y2="5087.91" gradientTransform="translate(-4351.14)" gradientUnits="userSpaceOnUse"><stop offset="0" stop-color="#e38ddd"/><stop offset="1" stop-color="#9571f6"/></linearGradient><linearGradient id="linear-gradient-5" x1="6095.92" y1="573.66" x2="3917.7" y2="5091.68" xlink:href="#linear-gradient-4"/><linearGradient id="linear-gradient-6" x1="5607.59" y1="854.59" x2="5767.95" y2="854.59" gradientTransform="translate(-4351.14 52.95)" gradientUnits="userSpaceOnUse"><stop offset="0" stop-color="#ff9085"/><stop offset="1" stop-color="#fb6fbb"/></linearGradient><linearGradient id="linear-gradient-7" x1="5926.76" y1="854.59" x2="6087.12" y2="854.59" xlink:href="#linear-gradient-6"/><linearGradient id="linear-gradient-8" x1="6245.92" y1="854.59" x2="6406.28" y2="854.59" xlink:href="#linear-gradient-6"/><linearGradient id="linear-gradient-9" x1="4950.18" y1="581.99" x2="6731.9" y2="581.99" xlink:href="#linear-gradient-6"/><linearGradient id="linear-gradient-10" x1="6565.91" y1="908.3" x2="6724.63" y2="908.3" gradientTransform="translate(-4351.14)" xlink:href="#linear-gradient-6"/><linearGradient id="linear-gradient-11" x1="5275.81" y1="1911.25" x2="6153.33" y2="1911.25" gradientTransform="translate(-4351.14)" xlink:href="#linear-gradient"/><linearGradient id="linear-gradient-12" x1="5319.77" y1="2160.28" x2="6167.9" y2="2160.28" gradientTransform="translate(-4351.14)" xlink:href="#linear-gradient"/><linearGradient id="linear-gradient-13" x1="5299.79" y1="1313.46" x2="6018.08" y2="1313.46" gradientTransform="translate(-4351.14)" xlink:href="#linear-gradient"/><linearGradient id="linear-gradient-14" x1="5357.68" y1="1488.35" x2="5979.44" y2="1488.35" gradientTransform="translate(-4351.14)" xlink:href="#linear-gradient"/><linearGradient id="linear-gradient-15" x1="5375.98" y1="1231.15" x2="5427.04" y2="1231.15" gradientTransform="translate(-4351.14)" xlink:href="#linear-gradient"/><linearGradient id="linear-gradient-16" x1="5398.98" y1="1133.37" x2="5619.48" y2="1133.37" gradientTransform="translate(-4351.14)" xlink:href="#linear-gradient"/><linearGradient id="linear-gradient-17" x1="5889.24" y1="1233.16" x2="5935.33" y2="1233.16" gradientTransform="translate(-4351.14)" xlink:href="#linear-gradient"/><linearGradient id="linear-gradient-18" x1="5665.99" y1="1135.02" x2="5913.65" y2="1135.02" gradientTransform="translate(-4351.14)" xlink:href="#linear-gradient"/><linearGradient id="linear-gradient-19" x1="219.53" y1="1615.93" x2="585.92" y2="1615.93" gradientUnits="userSpaceOnUse"><stop offset="0" stop-color="#311944"/><stop offset="1" stop-color="#a03976"/></linearGradient><linearGradient id="linear-gradient-20" x1="1060.39" y1="1574.04" x2="403.72" y2="1656.13" gradientUnits="userSpaceOnUse"><stop offset="0" stop-color="#d8dee8"/><stop offset="1" stop-color="#fff"/></linearGradient><linearGradient id="linear-gradient-21" x1="1064.39" y1="1606" x2="407.71" y2="1688.08" xlink:href="#linear-gradient-20"/><linearGradient id="linear-gradient-22" x1="694.86" y1="1899.51" x2="452.37" y2="2795.69" gradientTransform="matrix(1, 0, 0, 1, 0, 0)" xlink:href="#linear-gradient-6"/><linearGradient id="linear-gradient-23" x1="1287.14" y1="1540.57" x2="320.22" y2="2489.53" gradientTransform="matrix(1, 0, 0, 1, 0, 0)" xlink:href="#linear-gradient-6"/><linearGradient id="linear-gradient-24" x1="333.15" y1="2129.32" x2="620.52" y2="2129.32" xlink:href="#linear-gradient-19"/><linearGradient id="linear-gradient-25" x1="138.29" y1="2290.68" x2="300.96" y2="2563.47" gradientTransform="matrix(1, 0, 0, 1, 0, 0)" xlink:href="#linear-gradient-4"/><linearGradient id="linear-gradient-26" x1="163.44" y1="2275.68" x2="326.11" y2="2548.47" gradientTransform="matrix(1, 0, 0, 1, 0, 0)" xlink:href="#linear-gradient-4"/><linearGradient id="linear-gradient-27" x1="421.47" y1="2453.52" x2="879.45" y2="2806.39" gradientTransform="matrix(1, 0, 0, 1, 0, 0)" xlink:href="#linear-gradient-4"/><linearGradient id="linear-gradient-28" x1="414.8" y1="2137.47" x2="680.24" y2="2137.47" xlink:href="#linear-gradient-19"/><linearGradient id="linear-gradient-29" x1="427.39" y1="2392.89" x2="885.37" y2="2745.76" gradientTransform="matrix(1, 0, 0, 1, 0, 0)" xlink:href="#linear-gradient-4"/><linearGradient id="linear-gradient-30" x1="414.8" y1="2317.42" x2="452.1" y2="2317.42" xlink:href="#linear-gradient-19"/><linearGradient id="linear-gradient-31" x1="658.04" y1="2262.74" x2="695.35" y2="2262.74" gradientTransform="translate(2723.43 1084.28) rotate(76.72)" xlink:href="#linear-gradient-19"/><linearGradient id="linear-gradient-32" x1="274.95" y1="619.48" x2="973.75" y2="619.48" gradientTransform="translate(-66.22)" xlink:href="#linear-gradient-3"/><linearGradient id="linear-gradient-33" x1="834.26" y1="252.18" x2="470.44" y2="1054.83" gradientTransform="translate(-66.22)" gradientUnits="userSpaceOnUse"><stop offset="0" stop-color="#aa80f9"/><stop offset="1" stop-color="#6165d7"/></linearGradient><linearGradient id="linear-gradient-34" x1="294.06" y1="603.32" x2="928.13" y2="603.32" gradientTransform="matrix(1, 0, 0, 1, 0, 0)" xlink:href="#linear-gradient-33"/><linearGradient id="linear-gradient-35" x1="533.51" y1="519.76" x2="816.16" y2="1119.77" xlink:href="#linear-gradient-33"/><linearGradient id="linear-gradient-36" x1="708.16" y1="2038.8" x2="1081.37" y2="2038.8" gradientTransform="matrix(-1, 0, 0, 1, 3136.54, 0)" gradientUnits="userSpaceOnUse"><stop offset="0" stop-color="#444b8c"/><stop offset="1" stop-color="#3e4177"/></linearGradient><linearGradient id="linear-gradient-37" x1="2207.4" y1="2382.59" x2="2263.98" y2="2716.89" gradientTransform="matrix(1, 0, 0, 1, 0, 0)" xlink:href="#linear-gradient-3"/><linearGradient id="linear-gradient-38" x1="962.83" y1="2439.71" x2="914.11" y2="2744.75" gradientTransform="matrix(-1, 0, 0, 1, 3136.54, 0)" xlink:href="#linear-gradient-19"/><linearGradient id="linear-gradient-39" x1="708.16" y1="2038.83" x2="1081.37" y2="2038.83" xlink:href="#linear-gradient-36"/><linearGradient id="linear-gradient-40" x1="914.97" y1="2199.1" x2="1234.08" y2="2199.1" xlink:href="#linear-gradient-36"/><linearGradient id="linear-gradient-41" x1="1771.15" y1="1547.16" x2="2490.09" y2="1547.16" gradientTransform="matrix(1, 0, 0, 1, 0, 0)" xlink:href="#linear-gradient-6"/><linearGradient id="linear-gradient-42" x1="2313.62" y1="1548.07" x2="2449.73" y2="1548.07" gradientTransform="matrix(1, 0, 0, 1, 0, 0)" xlink:href="#linear-gradient-6"/><linearGradient id="linear-gradient-43" x1="2081.23" y1="1434.12" x2="2137.86" y2="1529.77" xlink:href="#linear-gradient-19"/><linearGradient id="linear-gradient-44" x1="1771.15" y1="1591.81" x2="2254.61" y2="1591.81" gradientTransform="matrix(1, 0, 0, 1, 0, 0)" xlink:href="#linear-gradient-6"/><linearGradient id="linear-gradient-45" x1="1728.14" y1="1438.16" x2="2110.35" y2="1438.16" gradientTransform="matrix(1, 0, 0, 1, 0, 0)" xlink:href="#linear-gradient-6"/><linearGradient id="linear-gradient-46" x1="2407.93" y1="1554.86" x2="2204.98" y2="1401.95" gradientTransform="matrix(1, 0, 0, 1, 0, 0)" xlink:href="#linear-gradient-3"/><linearGradient id="linear-gradient-47" x1="820.37" y1="1404.61" x2="916.87" y2="1578.61" gradientTransform="matrix(-1, 0, 0, 1, 3136.54, 0)" xlink:href="#linear-gradient-3"/><linearGradient id="linear-gradient-48" x1="2192.48" y1="1352.88" x2="2342.71" y2="1716.64" gradientTransform="matrix(1, 0, 0, 1, 0, 0)" xlink:href="#linear-gradient-3"/><linearGradient id="linear-gradient-49" x1="1049.8" y1="1050.71" x2="1022.97" y2="1279.49" gradientTransform="matrix(-1, 0, 0, 1, 3136.54, 0)" xlink:href="#linear-gradient-19"/><linearGradient id="linear-gradient-50" x1="800.32" y1="1507.39" x2="864.88" y2="1507.39" gradientTransform="matrix(-1, 0, 0, 1, 3136.54, 0)" xlink:href="#linear-gradient-19"/><linearGradient id="linear-gradient-51" x1="2201" y1="1042.63" x2="2165.13" y2="1149.3" gradientTransform="matrix(1, 0, 0, 1, 0, 0)" xlink:href="#linear-gradient-3"/><linearGradient id="linear-gradient-52" x1="1025.54" y1="1081.64" x2="1000.12" y2="1145.19" gradientTransform="matrix(-1, 0, 0, 1, 3136.54, 0)" xlink:href="#linear-gradient-19"/><linearGradient id="linear-gradient-53" x1="1507.26" y1="2209.81" x2="1316.28" y2="2722.43" gradientTransform="translate(-113.44 -31.51) rotate(3.47)" xlink:href="#linear-gradient"/><linearGradient id="linear-gradient-54" x1="1469.82" y1="2616.07" x2="1442.69" y2="2334.6" gradientTransform="translate(-113.44 -31.51) rotate(3.47)" xlink:href="#linear-gradient"/><linearGradient id="linear-gradient-55" x1="1236.48" y1="2577.72" x2="1243.2" y2="2117.07" gradientTransform="translate(-113.44 -31.51) rotate(3.47)" xlink:href="#linear-gradient"/><linearGradient id="linear-gradient-56" x1="1318.98" y1="2581.93" x2="1325.73" y2="2119.14" gradientTransform="translate(-113.44 -31.51) rotate(3.47)" xlink:href="#linear-gradient"/><linearGradient id="linear-gradient-57" x1="1418.17" y1="2583.41" x2="1424.91" y2="2122.16" gradientTransform="translate(-113.44 -31.51) rotate(3.47)" xlink:href="#linear-gradient"/><linearGradient id="linear-gradient-58" x1="1486.56" y1="2588.19" x2="1493.33" y2="2124.13" gradientTransform="translate(-113.44 -31.51) rotate(3.47)" xlink:href="#linear-gradient"/><linearGradient id="linear-gradient-59" x1="1555.72" y1="2596.55" x2="1562.58" y2="2126.24" gradientTransform="translate(-113.44 -31.51) rotate(3.47)" xlink:href="#linear-gradient"/><linearGradient id="linear-gradient-60" x1="1625.9" y1="2596.7" x2="1632.73" y2="2128.42" gradientTransform="translate(-113.44 -31.51) rotate(3.47)" xlink:href="#linear-gradient"/><linearGradient id="linear-gradient-61" x1="1669.32" y1="2598.84" x2="1676.16" y2="2129.82" gradientTransform="translate(-113.44 -31.51) rotate(3.47)" xlink:href="#linear-gradient"/><linearGradient id="linear-gradient-62" x1="1173.46" y1="2579.68" x2="1180.25" y2="2114.44" gradientTransform="translate(-113.44 -31.51) rotate(3.47)" xlink:href="#linear-gradient"/><linearGradient id="linear-gradient-63" x1="1381.13" y1="2588.33" x2="1387.96" y2="2120.51" gradientTransform="translate(-113.44 -31.51) rotate(3.47)" xlink:href="#linear-gradient"/><linearGradient id="linear-gradient-64" x1="1432.06" y1="2268.94" x2="1459.82" y2="2491.06" gradientTransform="translate(-113.44 -31.51) rotate(3.47)" gradientUnits="userSpaceOnUse"><stop offset="0" stop-color="#ab316d"/><stop offset="1" stop-color="#792d3d"/></linearGradient><linearGradient id="linear-gradient-65" x1="1446.31" y1="2333.69" x2="1467.43" y2="2502.7" xlink:href="#linear-gradient-64"/><linearGradient id="linear-gradient-66" x1="793.62" y1="2407.3" x2="2821.68" y2="2541.26" gradientTransform="translate(-113.44 -31.51) rotate(3.47)" gradientUnits="userSpaceOnUse"><stop offset="0" stop-color="#6bffd4"/><stop offset="1" stop-color="#25767a"/></linearGradient><linearGradient id="linear-gradient-67" x1="1431.46" y1="2431.63" x2="1493.82" y2="2861.24" gradientTransform="translate(-113.44 -31.51) rotate(3.47)" xlink:href="#linear-gradient"/><linearGradient id="linear-gradient-68" x1="2083.17" y1="2281.87" x2="-89.24" y2="2849.24" xlink:href="#linear-gradient-66"/><linearGradient id="linear-gradient-69" x1="1431.49" y1="2432.72" x2="1493.59" y2="2860.5" gradientTransform="translate(-113.44 -31.51) rotate(3.47)" xlink:href="#linear-gradient"/></defs><g class="cls-3"><g id="Layer_2" data-name="Layer 2"><g id="Illustration"><path class="cls-4" d="M1447.8.64C728.94-21.06,106.26,512.23,12.19,1212-90.67,1977,471.58,2695,1172,2775.68c1550.55,178.56,1706.83-656.22,1631.37-1516.9C2746.56,610.33,2178.53,22.7,1447.8.64Z" transform="translate(0 52.95)"/><path class="cls-1" d="M2622.65,693.57c-25.43-43-74.47-79-119.69-99-320.62-141.61-615.91,528.8-620.75,700.62s-55.66,210.53-343.67,197.77-219.39,186.74-220.36,288.64,34.07,200.85-187.17,222.89-175.64,101.38-175.64,101.38,220.22,481.57,242,360.57S1316,2185.74,1633,2285c136.55,42.73,365.62,52.64,463-75,22.69-29.72,48.5-78.3,52.9-115.92,6.11-52.18-11.85-101.5-13.11-153.13-2.92-120.34,127.48-160.8,211.9-210.17,44.07-25.78,88.47-52.5,127.19-86,80.37-69.63,95.67-169.79,71.23-269.41-11.71-47.76-32.56-101.47-27.18-151.48,5.78-53.73,40.51-117.49,61.64-167.3,16.57-39.06,34.64-77.41,46.78-118.19C2649.9,862.48,2665.16,765.39,2622.65,693.57Z" transform="translate(0 52.95)"/><g class="cls-5"><g class="cls-6"><path class="cls-7" d="M856.07,2296a5.17,5.17,0,0,1-.69-10.29c1.73-.24,176.12-24.65,385.39-92.86C1433.6,2130,1696.35,2016,1853,1830,1983.87,1674.71,2151,1400.22,2311.46,1077c143.91-289.87,229.91-511.6,229.91-558.5a5.17,5.17,0,0,1,10.34,0c0,54.86-101.46,302.21-231,563.1-160.85,324-328.44,599.2-459.79,755.14-158.28,187.9-423,302.77-617.13,366-210.12,68.48-385.27,93-387,93.22A5.65,5.65,0,0,1,856.07,2296Z" transform="translate(0 52.95)"/><path class="cls-7" d="M2289.83,1135.41c-2.84,0-5.15-1.62-5.17-4.47,0-3.76-4-377.82-135.38-509.2a5,5,0,0,1,0-7.14,5.18,5.18,0,0,1,7.31.08C2291,749.06,2294.9,1115.28,2295,1130.83c0,2.86-2.28,4.58-5.13,4.58Z" transform="translate(0 52.95)"/><path class="cls-7" d="M2092.43,1496.56a5.17,5.17,0,0,1-1.74-10c1.16-.42,118.1-42,251.86-64.12,180.74-29.85,304.54-11.81,368,53.63a5.17,5.17,0,1,1-7.42,7.19c-145.92-150.54-604.3,11.38-608.92,13A5,5,0,0,1,2092.43,1496.56Z" transform="translate(0 52.95)"/><path class="cls-7" d="M1418.05,2137.35a5.17,5.17,0,0,1-4.89-6.85c.48-1.42,48.89-143.89,72.89-303.72,22-146.53,27.52-338-71.26-418.12a5.17,5.17,0,1,1,6.51-8c82.37,66.79,107.59,210.73,75,427.83-24.16,160.72-72.83,304-73.32,305.39A5.17,5.17,0,0,1,1418.05,2137.35Z" transform="translate(0 52.95)"/><path class="cls-7" d="M1701.31,1980.91a5.17,5.17,0,0,1-1.49-10.12c19.83-6,487.06-144.74,621.84-67a5.17,5.17,0,0,1-5.16,9c-131-75.56-608.89,66.48-613.7,67.92A5.17,5.17,0,0,1,1701.31,1980.91Z" transform="translate(0 52.95)"/></g></g><path class="cls-2" d="M2050.4,80.07c-40.94-28.56-100.51-41.06-150-40.51C1550,43.5,1559,776,1625.73,934.39s36.57,214.68-230.86,322.38-122.31,260.86-81,354,114.22,168.7-78,280.42-117.85,165-117.85,165,399.93,347.07,369.63,227.92-8.38-304.62,321.26-345.65c142-17.67,354.58-103.56,390.36-260.08,8.33-36.45,11.7-91.35.12-127.42-16.06-50-52.84-87.47-75.37-133.94-52.51-108.32,49.4-199.17,105.78-279.08,29.44-41.71,58.78-84.43,80.12-131,44.31-96.67,16.74-194.18-46.77-274.72-30.46-38.62-71.68-78.86-87.5-126.61-17-51.29-11.81-123.71-13.21-177.8-1.1-42.42-.54-84.81-6.39-126.95C2145.18,222.51,2118.84,127.83,2050.4,80.07Z" transform="translate(0 52.95)"/><g class="cls-8"><g class="cls-6"><path class="cls-7" d="M1106.41,2270.39a5.16,5.16,0,0,1-4.89-9.07c1.48-.94,150.08-95.4,312.29-244.19,149.47-137.09,341.39-349.67,406.93-583.85,54.74-195.59,93.1-514.64,105.26-875.34,10.9-323.45-2.69-560.89-22.12-603.57a5.16,5.16,0,0,1,2.56-6.85,5.17,5.17,0,0,1,6.85,2.56c22.73,49.94,32.85,317.09,23,608.21-12.18,361.49-50.68,681.43-105.63,877.77-66.21,236.58-259.53,450.79-410,588.82-162.88,149.38-312.14,244.23-313.63,245.17A3.83,3.83,0,0,1,1106.41,2270.39Z" transform="translate(0 52.95)"/><path class="cls-7" d="M1930.53,620.09c-2.58,1.18-5.36.66-6.55-1.92-1.59-3.42-160.18-342.22-334.17-407.36a5,5,0,0,1-3-6.5,5.16,5.16,0,0,1,6.69-2.95c178,66.62,333.26,398.32,339.8,412.43,1.2,2.59-.18,5.11-2.78,6.29Z" transform="translate(0 52.95)"/><path class="cls-7" d="M1900.48,1030.57a5.17,5.17,0,0,1-5.74-8.41c.89-.86,90.08-87.17,202.67-162.7,152.13-102.05,272.28-136.92,357.11-103.63a5.17,5.17,0,1,1-3.77,9.62c-195.17-76.56-545.29,260.71-548.81,264.12A4.93,4.93,0,0,1,1900.48,1030.57Z" transform="translate(0 52.95)"/><path class="cls-7" d="M1552.16,1893.17a5.16,5.16,0,0,1-7.28-4.2c-.15-1.5-15.12-151.22-59.48-306.63-40.68-142.49-115-319-238.08-351a5.17,5.17,0,0,1,2.6-10c102.63,26.67,185.22,147.23,245.46,358.33,44.6,156.3,59.64,306.83,59.79,308.33A5.17,5.17,0,0,1,1552.16,1893.17Z" transform="translate(0 52.95)"/><path class="cls-7" d="M1745.16,1633.44a5.17,5.17,0,0,1-5.54-8.6c15.58-13.62,383.33-333.52,538.22-318.58a5.17,5.17,0,0,1-1,10.3c-150.5-14.52-526.63,312.76-530.41,316.06A4.83,4.83,0,0,1,1745.16,1633.44Z" transform="translate(0 52.95)"/></g></g><path class="cls-9" d="M1751,305.32q133.15,1125.41,266.31,2227.33c4,32.93-18.77,62.06-50.61,64.78q-535.15,50.76-1070.31,103.76c-63.64,3.09-98.59-32.47-102.68-68.08q-137.07-1189.53-274.12-2404c-4.1-36.36,26.7-67.61,90.35-64.51Q1147.69,203,1685.49,240.31C1717.54,242.43,1747,271.66,1751,305.32Z" transform="translate(0 52.95)"/><path class="cls-10" d="M1800.52,303.78q134,1130.31,268,2236.85c4,33-18.89,62.34-50.93,65.08q-555.69,47.05-1111.38,96c-33.81,3-64.88-23.78-69-59.55Q699.28,1447.16,561.35,227c-4.12-36.51,20.39-64.55,54.42-62.24q559.43,37.32,1118.85,73.74C1766.88,240.63,1796.51,270,1800.52,303.78Z" transform="translate(0 52.95)"/><path class="cls-11" d="M1779,427.06q124.11,1047.23,248.22,2074c3.75,30.94-17.65,58.26-47.58,60.7q-522.6,42.73-1045.2,87.1c-31.48,2.7-60.42-22.37-64.26-55.6q-127.53-1103.75-255-2229c-3.84-33.94,19-60.21,50.64-58.33q525.86,30.62,1051.7,60.59C1747.58,368.26,1775.26,395.52,1779,427.06Z" transform="translate(0 52.95)"/><path class="cls-12" d="M1717.46,366.54q-519.62-29.62-1039.25-59.88a794.27,794.27,0,0,0,60.87,196.89c114.9,249.29,283.71,263,349.75,480.26,68,223.81-85.4,293.85-10.44,495.92,81.35,219.27,280.85,187.53,386.3,428.06,90.89,207.31-26.12,302.08,67.86,428.06,103,138.08,293.57,91.27,491.38,138Q1901.46,1460.39,1779,427.06C1775.26,395.52,1747.58,368.26,1717.46,366.54Z" transform="translate(0 52.95)"/><path class="cls-13" d="M1211.48,274.51c1.41,12.14-6.75,21.43-18.23,20.77s-21.94-11.13-23.35-23.33,6.76-21.51,18.25-20.76S1210.07,262.35,1211.48,274.51Z" transform="translate(0 52.95)"/><ellipse class="cls-14" cx="1336.63" cy="907.54" rx="80.18" ry="94.59"/><ellipse class="cls-15" cx="1655.79" cy="907.54" rx="80.18" ry="94.59"/><ellipse class="cls-1" cx="1495.33" cy="907.54" rx="81.32" ry="94.59"/><ellipse class="cls-16" cx="1974.96" cy="907.54" rx="80.18" ry="94.59"/><ellipse class="cls-1" cx="1814.49" cy="907.54" rx="81.32" ry="94.59"/><ellipse class="cls-1" cx="2133.66" cy="907.54" rx="81.32" ry="94.59"/><ellipse class="cls-1" cx="1176.16" cy="907.54" rx="81.32" ry="94.59"/><polygon class="cls-17" points="599.03 349.52 1096.58 920.35 2380.76 920.35 1758.49 421.82 599.03 349.52"/><polygon class="cls-4" points="599.03 349.52 1096.58 920.35 1257.48 920.35 732.87 357.87 599.03 349.52"/><polygon class="cls-4" points="876.57 366.83 1416.05 920.35 1574.99 920.35 1021.34 375.86 876.57 366.83"/><polygon class="cls-4" points="1167.18 384.95 1734.31 920.35 1894.02 920.35 1314.13 394.11 1167.18 384.95"/><polygon class="cls-4" points="1611.4 412.65 1462.2 403.35 2054.12 920.35 2214.61 920.35 1611.4 412.65"/><path class="cls-18" d="M2214.77,867.4c5.31,46.17,38.77,81.79,79.35,81.79s74.05-35.62,79.36-81.79Z" transform="translate(0 52.95)"/><g class="cls-19"><g class="cls-20"><path class="cls-21" d="M1802.05,1974.54c1.8,21.44-13.82,39.48-34.92,40.35l-773.36,31.73c-22.73.93-43.6-16.32-46.56-38.59L925,1841.6c-3-22.75,13.26-41.79,36.35-42.48l785.11-23.27c21.42-.63,40.24,16.64,42.08,38.53Z" transform="translate(0 52.95)"/><path class="cls-22" d="M1816.62,2147.71a36.4,36.4,0,0,1-34.58,39.88l-764.89,37.69c-22.47,1.11-43.08-15.63-46-37.44l-2.19-16.5c-2.92-21.91,13.07-40.53,35.68-41.55l769.42-34.52c21-.94,39.43,15.45,41.21,36.55Z" transform="translate(0 52.95)"/></g><g class="cls-23"><path class="cls-24" d="M1650.54,1349.72l-673,5.31c-11.33.09-21.62-8.38-23-18.92l-5.77-45c-1.36-10.61,6.79-19.21,18.18-19.21h676.58a20,20,0,0,1,19.59,17.91l3.73,42A16.22,16.22,0,0,1,1650.54,1349.72Z" transform="translate(0 52.95)"/><path class="cls-25" d="M1006.53,1371.6l86,217.25c5.35,13.52,19.7,22.64,34.78,22.14l440.42-14.41c13.79-.45,24.92-9.94,27-23l33.57-207.85Zm193.14,202.47c1,8.51-5.57,15.63-14.66,15.91l-15.72.48c-9.14.28-17.38-6.41-18.4-15l-20-168.16c-1-8.72,5.64-15.87,14.9-16l15.93-.19c9.22-.1,17.49,6.85,18.5,15.52Zm87-2.55c.94,8.44-5.54,15.49-14.48,15.77l-15.45.47c-9,.28-17.06-6.36-18-14.83l-19-166.75c-1-8.64,5.61-15.74,14.71-15.84l15.66-.18c9-.11,17.16,6.79,18.12,15.39Zm85.5-2.51c.89,8.37-5.5,15.36-14.29,15.63l-15.2.47c-8.83.27-16.75-6.31-17.66-14.72l-18-165.35c-.93-8.57,5.57-15.6,14.52-15.71l15.4-.17c8.9-.11,16.85,6.73,17.75,15.26Zm84.08-2.47c.84,8.3-5.47,15.24-14.11,15.5l-14.95.46c-8.68.27-16.44-6.26-17.31-14.6l-17.12-164c-.89-8.5,5.54-15.47,14.34-15.57l15.13-.18c8.76-.1,16.54,6.68,17.41,15.14Zm82.69-2.43c.8,8.23-5.44,15.11-13.94,15.38l-14.7.45c-8.54.26-16.14-6.22-17-14.49l-16.21-162.63c-.84-8.43,5.5-15.34,14.15-15.44l14.89-.18c8.61-.09,16.24,6.63,17.05,15Z" transform="translate(0 52.95)"/><path class="cls-26" d="M1069.25,1249.2c-9.48,8.62-25.6,7.56-36-2.39s-11.23-25.1-1.69-33.74,25.7-7.49,36.1,2.52S1078.71,1240.6,1069.25,1249.2Z" transform="translate(0 52.95)"/><path class="cls-27" d="M1265.89,1035.68c-3.87-3.92-10.94-3.54-15.8.86l-198,179.48c-5,4.51-5.72,11.3-1.69,15.16s11.32,3.34,16.27-1.16l197.41-179.28C1269,1046.34,1269.75,1039.6,1265.89,1035.68Z" transform="translate(0 52.95)"/><path class="cls-28" d="M1547.73,1250.26c10.34,8.24,24.71,7.28,32.12-2.12s5.09-23.72-5.2-32-24.74-7.41-32.2,2S1537.36,1242,1547.73,1250.26Z" transform="translate(0 52.95)"/><path class="cls-29" d="M1316.18,1036.84c3-3.74,10.11-3,15.86,1.59l224.59,180.31c5.4,4.33,7.45,10.8,4.57,14.45s-9.6,3.1-15-1.23l-225-180C1315.41,1047.36,1313.17,1040.59,1316.18,1036.84Z" transform="translate(0 52.95)"/></g><path class="cls-7" d="M1815.19,1961.39c1.81,21.44-13.81,39.48-34.92,40.35l-773.35,31.73c-22.74.93-43.6-16.32-46.57-38.59l-22.17-166.42c-3-22.76,13.26-41.8,36.35-42.49l785.11-23.26c21.41-.64,40.24,16.63,42.08,38.52Z" transform="translate(0 52.95)"/><path class="cls-7" d="M1829.76,2134.57a36.41,36.41,0,0,1-34.58,39.88l-764.88,37.69c-22.48,1.11-43.08-15.64-46-37.45l-2.2-16.49c-2.92-21.91,13.08-40.54,35.69-41.55l769.41-34.53c21-.94,39.44,15.45,41.22,36.56Z" transform="translate(0 52.95)"/><path class="cls-7" d="M1659.58,1340.68l-673,5.31c-11.33.09-21.62-8.38-23-18.92l-5.77-45c-1.36-10.61,6.79-19.21,18.18-19.21h676.58a20,20,0,0,1,19.59,17.91l3.73,42A16.22,16.22,0,0,1,1659.58,1340.68Z" transform="translate(0 52.95)"/><path class="cls-7" d="M1015.57,1362.56l86,217.25c5.35,13.52,19.69,22.64,34.78,22.14l440.42-14.4c13.79-.46,24.92-10,27-23l33.57-207.85ZM1208.71,1565c1,8.51-5.57,15.63-14.66,15.91l-15.72.48c-9.14.28-17.38-6.41-18.4-15l-20-168.17c-1-8.72,5.64-15.87,14.9-16l15.93-.18c9.21-.11,17.49,6.84,18.5,15.52Zm87-2.55c.94,8.44-5.54,15.49-14.48,15.77l-15.45.47c-9,.28-17.06-6.36-18-14.83l-19-166.75c-1-8.64,5.61-15.74,14.71-15.84l15.66-.18c9.05-.11,17.16,6.79,18.12,15.39Zm85.5-2.51c.89,8.37-5.5,15.36-14.29,15.63l-15.2.47c-8.83.28-16.75-6.31-17.66-14.71L1316,1396c-.94-8.57,5.57-15.6,14.52-15.71l15.39-.17c8.91-.11,16.85,6.73,17.76,15.26Zm84.08-2.47c.84,8.3-5.47,15.24-14.12,15.5l-14.94.47c-8.69.26-16.44-6.27-17.31-14.61l-17.12-164c-.89-8.49,5.54-15.47,14.33-15.57l15.14-.18c8.76-.1,16.54,6.68,17.4,15.14Zm82.69-2.42c.8,8.23-5.44,15.11-13.94,15.37l-14.7.45c-8.54.26-16.14-6.22-17-14.48l-16.21-162.64c-.84-8.43,5.5-15.34,14.15-15.44l14.89-.17c8.61-.1,16.24,6.62,17,15Z" transform="translate(0 52.95)"/><path class="cls-7" d="M1078.28,1240.16c-9.47,8.62-25.6,7.56-36-2.39s-11.24-25.1-1.69-33.74,25.7-7.49,36.1,2.52S1087.75,1231.56,1078.28,1240.16Z" transform="translate(0 52.95)"/><path class="cls-7" d="M1274.93,1026.64c-3.87-3.92-10.94-3.54-15.8.86l-198,179.48c-5,4.51-5.73,11.3-1.69,15.16s11.31,3.34,16.27-1.16l197.41-179.28C1278,1037.3,1278.79,1030.56,1274.93,1026.64Z" transform="translate(0 52.95)"/><path class="cls-7" d="M1556.77,1241.22c10.34,8.24,24.71,7.28,32.12-2.12s5.09-23.72-5.2-32-24.74-7.41-32.2,2S1546.4,1233,1556.77,1241.22Z" transform="translate(0 52.95)"/><path class="cls-7" d="M1325.22,1027.8c3-3.74,10.11-3,15.86,1.59l224.59,180.31c5.4,4.34,7.44,10.8,4.57,14.45s-9.6,3.1-15-1.23l-225-180C1324.45,1038.33,1322.21,1031.55,1325.22,1027.8Z" transform="translate(0 52.95)"/></g><path class="cls-30" d="M570.08,1803.64a15.82,15.82,0,0,1-15.7-14.1l-28.46-259.49-14.72,7.26a15.82,15.82,0,0,1-22.81-14.19v-7.47l-10.87,4.73a15.74,15.74,0,0,1-10.33.81l-235.85-61.85a15.81,15.81,0,1,1,8-30.59l230.55,60.45,28-12.2A15.81,15.81,0,0,1,520,1491.49v6.21l12.17-6a15.81,15.81,0,0,1,22.71,12.46l30.92,281.92a15.81,15.81,0,0,1-14,17.45A17.27,17.27,0,0,1,570.08,1803.64Z" transform="translate(0 52.95)"/><path class="cls-31" d="M1029.49,1631.13c0,39.19-161.11,40.57-359.85,40.57s-359.86-1.38-359.86-40.57,161.12-71,359.86-71S1029.49,1591.94,1029.49,1631.13Z" transform="translate(0 52.95)"/><path class="cls-32" d="M310.09,1631.13s-16.74,45.92-16.74,46.59,750.47,0,750.47,0l-14-46.59Z" transform="translate(0 52.95)"/><path class="cls-1" d="M1043.72,1678.06c0,40.85-168,74-375.13,74s-375.14-33.12-375.14-74,168-74,375.14-74S1043.72,1637.2,1043.72,1678.06Z" transform="translate(0 52.95)"/><path class="cls-33" d="M1007.8,1678.39c0-34.75-151.87-62.93-339.21-62.93s-339.21,28.18-339.21,62.93h-.22l69,888.85c0,44.37,121.09,80.34,270.47,80.34s270.46-36,270.46-80.34l69-888.85Z" transform="translate(0 52.95)"/><g class="cls-23"><path class="cls-34" d="M1007.8,1678.39c0-34.75-151.87-62.93-339.21-62.93-65,0-125.8,3.4-177.42,9.29-8,24.31-12.31,50.12-11,77.07C487.64,1856.39,672.09,1908,735.9,2054c38.9,89,40.39,358.37-106.25,592.79q19.07.83,38.94.83c149.37,0,270.46-36,270.46-80.34l69-888.85Z" transform="translate(0 52.95)"/></g><path class="cls-35" d="M613.84,2252.49a6.67,6.67,0,0,1-6.64-6c-5.84-61.32-25.83-119.58-56.29-164-27-39.4-59.11-62.91-85.95-62.91h-.09c-97.75.19-118.2,224.63-118.4,226.9a6.67,6.67,0,0,1-13.3-1.14c.84-9.76,21.77-238.89,131.68-239.11H465c31.72,0,67.05,25,97,68.72,31.71,46.31,52.52,106.8,58.57,170.33a6.67,6.67,0,0,1-6,7.27Z" transform="translate(0 52.95)"/><path class="cls-36" d="M206.58,2714.42l128.68,65.15,78-239.27L284.76,2219.53l-36.43,8.93-55.28,460.69A25,25,0,0,0,206.58,2714.42Z" transform="translate(0 52.95)"/><path class="cls-37" d="M413.24,2540.3,284.76,2219.53l-21.49,5.26a697.88,697.88,0,0,0,.36,103.75c8.61,109.21,37.21,139.6,23.36,215.79-11.53,63.35-36.69,72-34.49,114.57,2.4,46.42,34.78,85.29,73.27,115.86l9.49,4.81Z" transform="translate(0 52.95)"/><polygon class="cls-38" points="284.76 2272.47 764.58 2272.47 923.38 2785.13 335.26 2832.52 284.76 2272.47"/><path class="cls-39" d="M433.4,2263.47a6.68,6.68,0,0,1-6.49-5.16c-1.36-5.81-32.89-143.18,11.56-210.59,12.74-19.32,30.54-31.12,52.91-35.07C606.28,1992.41,677,2239.21,680,2249.72a6.67,6.67,0,1,1-12.85,3.61c-.7-2.45-70.34-245.74-173.45-227.53-18.87,3.33-33.28,12.9-44.07,29.26-41.32,62.67-10,198.84-9.71,200.21a6.69,6.69,0,0,1-6.51,8.2Z" transform="translate(0 52.95)"/><g class="cls-23"><path class="cls-40" d="M764.58,2219.53h-238c-11.74,11.94-20.07,25.7-20.87,41.14-3.74,72.53,163,96.36,179.09,195.77,11.6,71.71-59.78,154.46-123.47,191.32-67.11,38.84-112.57,19.17-158,62.29-19.94,18.95-32.08,42.64-39.3,67.2l559.34-45.07Z" transform="translate(0 52.95)"/></g><circle class="cls-41" cx="433.45" cy="2317.42" r="18.65"/><circle class="cls-42" cx="676.69" cy="2262.74" r="18.65" transform="translate(-1680.99 2454.41) rotate(-76.72)"/><path class="cls-43" d="M907.53,643.05c0,189.06-147.84,337.78-336.78,332-196.64-6-362-175.87-362-379.09s165.38-350.75,362-330.28C759.69,285.34,907.53,454,907.53,643.05Z" transform="translate(0 52.95)"/><path class="cls-44" d="M958.58,626.75c0,189.06-147.83,337.78-336.77,332-196.64-6-362-175.87-362-379.09s165.38-350.76,362-330.28C810.75,269,958.58,437.69,958.58,626.75Z" transform="translate(0 52.95)"/><path class="cls-45" d="M943.75,625.75c0,180.73-141.45,322.66-321.94,316.82C434.3,936.5,276.87,774.43,276.87,580.79S434.3,246.31,621.81,265.52C802.3,284,943.75,445,943.75,625.75Z" transform="translate(0 52.95)"/><path class="cls-46" d="M928.13,624.7c0,158.7-114.68,285.84-267.22,300.08a307.53,307.53,0,0,1-39.26,1.16c-178.17-6-327.59-160.09-327.59-344,0-159.91,113-282,259.63-299.33a310.72,310.72,0,0,1,68-.49C793.36,299.51,928.13,452.64,928.13,624.7Z" transform="translate(0 52.95)"/><path class="cls-47" d="M660.91,924.78a307.53,307.53,0,0,1-39.26,1.16c-178.17-6-327.59-160.09-327.59-344,0-159.91,113-282,259.63-299.33,49.52,38.67,93.86,88.15,101.5,146.78,12.46,95.57-83,139.55-93.55,243.42C553,758.53,594,854,660.91,924.78Z" transform="translate(0 52.95)"/><path class="cls-7" d="M456.18,529.16c0,54.78,63.78,185.06,108.82,270.27,18.77,35.5,68.2,37.89,87,4.12C697.46,722.16,762.2,596.41,762.2,541.11c0-85.33-69-156.88-153.73-159.79C524.18,378.43,456.18,444.62,456.18,529.16Zm70.34,2.74c0-45.48,36.64-81,82-79.36s82.35,40.07,82.35,85.78-36.92,81.24-82.35,79.35S526.52,577.39,526.52,531.9Z" transform="translate(0 52.95)"/><path class="cls-48" d="M2109.73,1731.55c68.83-33.61,203.07,88.14,268.4,204.75,26,46.47,56.6,101,49.1,165.89-13.3,115-140.86,215.86-316.43,249.53q-7.41-26.47-14.83-52.95c19.2-20,47.91-48.86,84.6-81.94,56.36-50.8,67.94-54.19,70.64-70.23,8.85-52.53-126.25-96.51-174.3-188.88C2035.59,1878.29,2056.86,1757.37,2109.73,1731.55Z" transform="translate(0 52.95)"/><path class="cls-49" d="M2200.15,2655.78s-11.3,27.87-5.68,38.79c5.9,11.46,23,8,71,9.86,49.17,1.84,60.29,5.79,62.25.85,3.93-9.87-34.27-41.22-79-49.5A135.68,135.68,0,0,0,2200.15,2655.78Z" transform="translate(0 52.95)"/><path class="cls-50" d="M2210.28,2614.1l26.73,41.68s-12.32,12.15-33.25,7.63l-29.41-39.48Z" transform="translate(0 52.95)"/><path class="cls-51" d="M2076.91,1957.72c-41.32-79.43-20-200.35,32.82-226.17,13.87-6.77,30.41-7.15,48.49-2.62-9.52,27.49-7.63,47.36-2.94,61.44,20.95,62.78,111.52,55.64,139.81,127.1,17.89,45.17-10.55,67.59,14.83,103.8,26.31,37.52,69.33,31.23,82.62,67.78,9.9,27.24-9.63,42.72-2.12,65.67,2.09,6.39,6.21,12.81,13.14,18.91-46.53,83.68-154.81,151.64-292.76,178.09q-7.41-26.47-14.83-52.95c19.2-20,47.91-48.86,84.6-81.94,56.36-50.8,67.94-54.19,70.64-70.23C2260.06,2094.07,2125,2050.09,2076.91,1957.72Z" transform="translate(0 52.95)"/><path class="cls-52" d="M2156.7,1756.47c-3,120.37-1.31,250.51,7.4,389a4448,4448,0,0,0,57.47,485.4l-34,10.81c-116.45-113.46-151.3-213.27-160.84-285.06-6.74-50.75,3.46-55.11-5.64-118.63-17.33-121-62.54-162.39-94.3-275.62-11.91-42.51-25.18-106.71-24.33-190.41Z" transform="translate(0 52.95)"/><path class="cls-53" d="M2240.11,1540.88c-2.11.49-11.29,3.54-14.92,41.89-8.75,92.47,39.39,129.91,27.54,180.06-11.38,48.13-69.42,71.49-129.15,95.53-39.92,16.06-163.39,65.74-235.2,9.88-30.22-23.52-33.52-51.9-55.08-156.25-54.78-265.12-76-287.9-53-345.29,39.56-98.56,145.49-139.37,163.11-146.16,187.92-72.41,409.84,60.67,497.53,213.56,11.55,20.13,80.5,140.36,32.05,197.39-29.31,34.5-96.67,40.07-141.12,16.55C2272.52,1616.6,2259.9,1536.35,2240.11,1540.88Z" transform="translate(0 52.95)"/><path class="cls-54" d="M2445.5,1611a4.19,4.19,0,0,0,1.75-.38,4.23,4.23,0,0,0,2.1-5.61c-1.61-3.53-40.4-86.78-130-119.63a4.23,4.23,0,0,0-2.91,7.95c86.22,31.6,124.86,114.36,125.24,115.19A4.24,4.24,0,0,0,2445.5,1611Z" transform="translate(0 52.95)"/><path class="cls-55" d="M2093.57,1515.92c.5-3.82,4.38-30.23,26.43-38.7,11-4.21,30.26-5.44,37.76,6.61,4.72,7.56,4.3,19.59-1.89,25.49-7.82,7.45-18-1.41-32.09,4.72-16.9,7.36-19.65,27.79-25.49,26.43C2093.7,1539.4,2092.26,1526,2093.57,1515.92Z" transform="translate(0 52.95)"/><path class="cls-56" d="M1903.2,1332.81c11.86,32.29-23.72,60.27-8.47,95.32,21.86,50.25,108.75,24.46,139.81,74.14,36.81,58.89-47.49,155.48-12.71,188.54,15.85,15.06,34.16-4.23,80.5,6.35,66,15.07,85.81,67.22,116.5,59.31,9.66-2.48,21.36-11.25,31.2-38.22,4.29,15,6.34,29.18,2.7,44.58-11.38,48.13-69.42,71.49-129.15,95.53-39.92,16.06-163.39,65.74-235.2,9.88-30.22-23.52-33.52-51.9-55.08-156.25-54.78-265.12-76-287.9-53-345.29,12.56-31.29,31.82-56.75,52.81-77.16C1878.41,1299.54,1897,1315.91,1903.2,1332.81Z" transform="translate(0 52.95)"/><path class="cls-57" d="M2092.2,1491c-5.07,4.61-61.93,65.67-123.77,50.21-53.86-13.47-86.92-65.84-92.72-109.9-13.77-104.78,122.75-192.74,105.92-213.95-9.9-12.47-62.61,10.68-99.56,33.9-30.3,19-157.27,98.82-153.86,232.59.34,13.58,2.53,99.6,59.47,142.54,76.89,58,195.72,56.43,322.67-83.73C2103.32,1522.68,2099.23,1511.05,2092.2,1491Z" transform="translate(0 52.95)"/><path class="cls-58" d="M2369.76,1362.65l-61.21,195.53a15.85,15.85,0,0,1-14.55,11.1l-80,11.63a15.83,15.83,0,0,1-16-19.18l54-200.14a15.82,15.82,0,0,1,15-12.47l87.28-7A15.83,15.83,0,0,1,2369.76,1362.65Z" transform="translate(0 52.95)"/><path class="cls-59" d="M2366.83,1369.08l-59.41,189.77a15.38,15.38,0,0,1-14.13,10.77L2223,1580.91a15.37,15.37,0,0,1-15.56-18.62l52.72-194.35a15.37,15.37,0,0,1,14.54-12.11l77-6.71A15.38,15.38,0,0,1,2366.83,1369.08Z" transform="translate(0 52.95)"/><path class="cls-60" d="M2207.39,1562.29l50.37-185.69a67.31,67.31,0,0,1,14.21,9.05c19.83,17,31.2,47.81,24.65,72.45-8.35,31.41-40.41,32.38-44.84,58.52-3.47,20.46,13.12,42.12,26.83,55.36l-55.65,8.93A15.37,15.37,0,0,1,2207.39,1562.29Z" transform="translate(0 52.95)"/><path class="cls-61" d="M2137.16,1201.7a22.5,22.5,0,0,0,16.32,28.06c15,3.63,33.38,8.65,41.29,13.18,14.53,8.31-44.26-1.29-98.33-2.56-33.76-.79-59-4.58-73.18-7.32a3.75,3.75,0,0,1-.41-7.25c13.51-4.39,35.48-10.87,54-13.2,23-2.89,47.64-53.61,47.64-53.61l19.7,17.89Z" transform="translate(0 52.95)"/><path class="cls-62" d="M2332.83,1502l-3.74-6.11a26.17,26.17,0,0,0-28.53-19.38l-19.64,2.42a10.58,10.58,0,0,0-9,12.67c1.83,8.77,6.53,19.26,18.6,18.44,20.5-1.38,33.6,28.5,33.6,28.5l7.87-11.09A23.13,23.13,0,0,0,2332.83,1502Z" transform="translate(0 52.95)"/><path class="cls-63" d="M2181.07,1175.7c17-2.52,36-16.8,35.64-28.6-.5-16.22-37.58-25.1-56.3-29.58s-26.74-2.87-32.12,1.22-9.1,11.66-10.28,18.12c-.64,3.51-.68,8.35-.07,18,.53,8.55.37,8.18.6,10.71.53,6.07,2.19,16.75,8.11,31.55a77,77,0,0,1,9.85-9.11,68.27,68.27,0,0,1,15-8.84C2163.74,1174.24,2170.75,1177.23,2181.07,1175.7Z" transform="translate(0 52.95)"/><path class="cls-64" d="M2117.61,1180.62s1.1,23.67,23.4,34.06c20,9.3,46.47-32.39,39.18-48.31-2.43-5.3-10-11.08-17.68-12.87-4.56-1.06-6.8-.15-14.21-2-6.84-1.72-8.17-3.32-10.81-2.78-3.3.66-7.51,4.42-10.66,19.13-1.64-5.74-5.27-9.59-9.21-9.83a7.58,7.58,0,0,0-3.94,1.1C2108.28,1162.56,2109.34,1171.34,2117.61,1180.62Z" transform="translate(0 52.95)"/><circle class="cls-7" cx="2303.04" cy="1305.42" r="16.56" transform="translate(-18.19 2631.16) rotate(-58.28)"/><path class="cls-7" d="M2303,1166.6a138.28,138.28,0,0,0-90.55,33.61,11.28,11.28,0,0,0-.69,16.55l.47.47a11.21,11.21,0,0,0,15.23.62,115.55,115.55,0,0,1,151.08,0,11.21,11.21,0,0,0,15.23-.62l.47-.47a11.28,11.28,0,0,0-.69-16.55A138.28,138.28,0,0,0,2303,1166.6Z" transform="translate(0 52.95)"/><path class="cls-7" d="M2303,1205.16a99.75,99.75,0,0,0-63.06,22.35,11.22,11.22,0,0,0-.79,16.64l.08.08a11.32,11.32,0,0,0,15.15.69,77.56,77.56,0,0,1,97.24,0,11.34,11.34,0,0,0,15.16-.69l.08-.08a11.24,11.24,0,0,0-.79-16.64A99.78,99.78,0,0,0,2303,1205.16Z" transform="translate(0 52.95)"/><path class="cls-7" d="M2266.77,1271.74a12.07,12.07,0,0,0,15.21,1.38,38.56,38.56,0,0,1,42.12,0,12.07,12.07,0,0,0,15.21-1.38l.05-.06a11.26,11.26,0,0,0-1.62-17.26,61.64,61.64,0,0,0-69.4,0,11.27,11.27,0,0,0-1.62,17.27Z" transform="translate(0 52.95)"/><path class="cls-65" d="M864,2506.22c-65.23-26.41-89.21-45.94-98-72.14-25.13-75.26,82-185.58,185.47-235.35,95.11-45.75,182.14-37.95,304.09-27,118,10.58,202.46,18.15,274.27,83,53.89,48.7,111.4,139.39,83.06,201.62-16.07,35.28-55.24,51.58-145.41,70.84C1113.83,2602.72,909,2524.48,864,2506.22Z" transform="translate(0 52.95)"/><path class="cls-66" d="M1016.35,2371.28c-174.58,3.93-216.79,54.61-216.21,103.28,14.9,10,35.46,20.18,63.82,31.66,45.07,18.26,249.87,96.5,603.53,21,42.88-9.16,74.2-17.65,97-27.82C1640.34,2317.73,1314,2364.59,1016.35,2371.28Z" transform="translate(0 52.95)"/><path class="cls-67" d="M1002.89,2201.64c-17.76,3.53-42.76,14.39-41.35,23.6,1.31,8.48,25.15,16.61,43.17,9.21,15.95-6.54,26.8-25,22.5-31.68C1023.8,2197.49,1011.06,2200,1002.89,2201.64Z" transform="translate(0 52.95)"/><path class="cls-68" d="M1084.7,2184.47c-13.48.86-31.67,8.06-31.52,17.29.13,7.64,12.82,15.88,24.2,15.55,17.24-.5,30.58-20.65,26.84-28.28C1101.46,2183.39,1089.19,2184.18,1084.7,2184.47Z" transform="translate(0 52.95)"/><path class="cls-69" d="M1175,2175.58c-7.89.06-35.11.27-36.18,7-1,6.22,20.05,18.3,41.34,18.51,20.34.2,40.84-10.43,39.93-16.72C1219.06,2177,1188.61,2175.47,1175,2175.58Z" transform="translate(0 52.95)"/><path class="cls-70" d="M1249.49,2189c-9-1.73-16.51,8.05-15.15,11.72,1.89,5.1,23.3,4.86,25.28-1C1260.78,2196.36,1255.66,2190.16,1249.49,2189Z" transform="translate(0 52.95)"/><path class="cls-71" d="M1331.39,2190.82c-16.58-13.34-42-4.09-43.53,4.18-2.28,12.12,43.61,37.61,53.69,28.45C1347.31,2218.21,1343,2200.17,1331.39,2190.82Z" transform="translate(0 52.95)"/><path class="cls-72" d="M1383.73,2203.24c-5.1.17-10.36,6.27-9.78,11.36,1,8.65,18.64,13.41,22.18,9.31S1392.4,2203,1383.73,2203.24Z" transform="translate(0 52.95)"/><path class="cls-73" d="M1434.28,2207.18c-8.32-4.29-18,1.1-18.51,5.38-.76,6.66,20,17.7,25,13.31C1443.94,2223,1442.79,2211.57,1434.28,2207.18Z" transform="translate(0 52.95)"/><path class="cls-74" d="M920.62,2224.89c-.5-5.4,14.21-13,18.87-9.18,3.12,2.58,3,11.35-2.43,15C930.51,2235.11,921,2229,920.62,2224.89Z" transform="translate(0 52.95)"/><path class="cls-75" d="M1133.68,2217.89c-5.33,1.52-9.14,10.51-6.31,16.21,4.12,8.32,21,7,23.48,1.83C1153.47,2230.37,1141.75,2215.59,1133.68,2217.89Z" transform="translate(0 52.95)"/><path class="cls-76" d="M883.61,2558.08c-25.1-7-63.34-18.78-67.64-42-6.48-35,66.78-81.42,130.13-103.08,63.57-21.73,85.21-7.59,243.72-15,48-2.25,77-5,153.82-7.72,74.58-2.63,124.81-2.79,174.12,26.31,15.63,9.23,43.63,26.24,45.44,51,2.15,29.38-33.78,53.29-50.93,64.4C1373.21,2622.07,1087.44,2615,883.61,2558.08Z" transform="translate(0 52.95)"/><path class="cls-77" d="M900.62,2559.14c-24.55-5.48-62-14.6-66.51-31.18-6.87-25,63.7-56.52,125-70.65,61.53-14.18,82.82-3.7,237-5.83,46.66-.65,74.83-2,149.62-2.43,72.56-.39,121.47.5,169.93,22.15,15.38,6.87,42.9,19.51,45.06,37.13,2.57,20.92-32,37.19-48.55,44.75C1378.24,2614.33,1099.94,2603.59,900.62,2559.14Z" transform="translate(0 52.95)"/><path class="cls-78" d="M1170.28,2542.47c-.72-16,35.12-30.43,48.5-34.74,40.11-12.91,52.78,9.22,102.63-2.35,18.89-4.39,31.93-11,56.74-10.1,16.38.62,21.87,3.93,33.77,5.6,42.26,5.94,59.06-23.74,97.13-28.2,46.84-5.49,100.48,30.16,99.55,54.48-.86,22.6-48.89,37.06-78.68,45.75C1364.88,2621,1171.93,2579,1170.28,2542.47Z" transform="translate(0 52.95)"/><path class="cls-79" d="M801,2736.68a99.12,99.12,0,0,1-29.49-34c-11.72-24.5-10.53-54.22.2-75.43,17.58-34.77,59.93-45.05,83.44-50.4,174.76-39.83,276.49-46.5,276.49-46.5,145.75-9.56,199.35-12.29,277.49-8.31,120.39,6.12,160.43,21.11,178.74,52,16.14,27.19,16.23,68.11-1.24,97.16-43.72,72.71-164,15.17-389.51,43.23C1072.12,2730,860.09,2778.61,801,2736.68Z" transform="translate(0 52.95)"/><path class="cls-80" d="M857.45,2520.48c-21.26,9.44-25.49,15.46-42.55,24.87-35.21,19.42-49,11.29-61.36,28.05-8.13,11-12.6,28.63-5.43,39.16,9.89,14.52,38.46,10.45,59.36,7.23,56.59-8.71,65.07-28.87,120.79-43.83,46.6-12.5,91.12-11.94,96.09-11.85,31,.58,40.18,2.19,52,2,0,0,9-.43,17.28-1.33,41.77-4.51,113-36.92,109.68-46.89-2.79-8.44-51.82,21-105.28-.6-13.54-5.47-36.9-17.07-67.31-20.28-41.89-4.42-44.58,18.18-91.63,14-16.42-1.44-31.31-5.53-53.6-.48C874.13,2513.13,865,2517.13,857.45,2520.48Z" transform="translate(0 52.95)"/><g class="cls-23"><path class="cls-81" d="M1525.11,2632.07c-37.33-2.66-63.45-17.55-75.76-23.85-109.17-55.94-296.08-33.33-417.11,14.2-106.43,41.79-140.77,94.53-213.8,78.29-20.84-4.63-39-13.61-54.53-24.36a85.71,85.71,0,0,0,7.58,26.34,99.12,99.12,0,0,0,29.49,34c59.11,41.93,271.14-6.73,396.12-22.28,225.51-28.06,345.79,29.48,389.51-43.23,9-14.92,13.28-33,13.19-50.68C1578,2628.69,1552.78,2634.05,1525.11,2632.07Z" transform="translate(0 52.95)"/></g></g></g></g></svg>