<svg 
width="117" 
height="59" 
viewBox="0 0 117 59" 
fill="none" 
xmlns="http://www.w3.org/2000/svg">
<path d="M2.8623 2.5C2.57953 2.5 2.30997 2.61972 2.12038 2.82952C1.93078 3.03932 1.83887 3.31958 1.86741 3.60091L7.19241 56.1009C7.2442 56.6115 7.6741 57 8.18731 57H19.1373C19.6488 57 20.0779 56.614 20.1317 56.1053L22.9623 29.3848L25.7929 56.1053C25.8468 56.614 26.2758 57 26.7873 57H37.0623C37.5755 57 38.0054 56.6115 38.0572 56.1009L43.3822 3.60091C43.4107 3.31958 43.3188 3.03932 43.1292 2.82952C42.9396 2.61972 42.6701 2.5 42.3873 2.5L35.2623 2.5C34.7452 2.5 34.3133 2.89429 34.2664 3.4093L31.485 33.9487L28.5327 3.40379C28.4831 2.89116 28.0523 2.5 27.5373 2.5L18.5373 2.5C18.0223 2.5 17.5915 2.89116 17.5419 3.40379L14.5897 33.9487L11.8082 3.4093C11.7613 2.89429 11.3294 2.5 10.8123 2.5L2.8623 2.5ZM74.6396 2.5C74.3569 2.5 74.0873 2.61972 73.8977 2.82952C73.7081 3.03932 73.6162 3.31958 73.6448 3.60091L78.9697 56.1009C79.0215 56.6115 79.4514 57 79.9646 57H90.9146C91.4262 57 91.8552 56.614 91.9091 56.1053L94.7397 29.3848L97.5702 56.1053C97.6241 56.614 98.0531 57 98.5647 57H108.84C109.353 57 109.783 56.6115 109.835 56.1009L115.16 3.60091C115.188 3.31958 115.096 3.03932 114.907 2.82952C114.717 2.61972 114.447 2.5 114.165 2.5L107.04 2.5C106.523 2.5 106.091 2.89429 106.044 3.4093L103.262 33.9487L100.31 3.40379C100.26 2.89116 99.8297 2.5 99.3147 2.5L90.3147 2.5C89.7996 2.5 89.3688 2.89116 89.3193 3.40379L86.367 33.9487L83.5855 3.4093C83.5386 2.89429 83.1068 2.5 82.5896 2.5L74.6396 2.5ZM48.4548 53.9829C50.8444 56.5392 54.2423 57.75 58.4854 57.75C62.7284 57.75 66.1263 56.5392 68.5159 53.9829C70.8903 51.4428 72.0104 47.917 72.0104 43.55L72.0104 15.95C72.0104 11.583 70.8903 8.05717 68.5159 5.51712C66.1263 2.96078 62.7284 1.75 58.4854 1.75C54.2423 1.75 50.8444 2.96078 48.4548 5.51712C46.0804 8.05716 44.9604 11.583 44.9604 15.95L44.9604 43.55C44.9604 47.917 46.0804 51.4428 48.4548 53.9829ZM61.7604 44.075C61.7604 45.6874 61.4234 46.7107 60.9206 47.3194C60.4481 47.8914 59.7005 48.25 58.4854 48.25C57.2702 48.25 56.5226 47.8914 56.0501 47.3194C55.5473 46.7107 55.2104 45.6874 55.2104 44.075L55.2104 15.425C55.2104 13.8126 55.5473 12.7893 56.0501 12.1806C56.5226 11.6086 57.2702 11.25 58.4854 11.25C59.7005 11.25 60.4481 11.6086 60.9206 12.1806C61.4234 12.7893 61.7604 13.8126 61.7604 15.425L61.7604 44.075Z" 
stroke="#EA7C69" 
stroke-width="2" 
stroke-linejoin="round"/>
</svg>
